<?xml version="1.0" encoding="UTF-8" standalone="no"?>
<!-- Created with matplotlib (https://matplotlib.org/) -->

<svg
   xmlns:dc="http://purl.org/dc/elements/1.1/"
   xmlns:cc="http://creativecommons.org/ns#"
   xmlns:rdf="http://www.w3.org/1999/02/22-rdf-syntax-ns#"
   xmlns:svg="http://www.w3.org/2000/svg"
   xmlns="http://www.w3.org/2000/svg"
   xmlns:xlink="http://www.w3.org/1999/xlink"
   xmlns:sodipodi="http://sodipodi.sourceforge.net/DTD/sodipodi-0.dtd"
   xmlns:inkscape="http://www.inkscape.org/namespaces/inkscape"
   height="157.00988pt"
   version="1.1"
   viewBox="0 0 508.094645 157.00988"
   width="508.094645pt"
   id="svg673"
   sodipodi:docname="three_state_system_directed.svg"
   inkscape:version="0.92.5 (2060ec1f9f, 2020-04-08)">
  <sodipodi:namedview
     pagecolor="#ffffff"
     bordercolor="#666666"
     borderopacity="1"
     objecttolerance="10"
     gridtolerance="10"
     guidetolerance="10"
     inkscape:pageopacity="0"
     inkscape:pageshadow="2"
     inkscape:window-width="1920"
     inkscape:window-height="948"
     id="namedview675"
     showgrid="false"
     inkscape:zoom="2.0488309"
     inkscape:cx="154.43427"
     inkscape:cy="109.56164"
     inkscape:window-x="0"
     inkscape:window-y="27"
     inkscape:window-maximized="1"
     inkscape:current-layer="svg673" />
  <metadata
     id="metadata2">
    <rdf:RDF>
      <cc:Work>
        <dc:type
           rdf:resource="http://purl.org/dc/dcmitype/StillImage" />
        <dc:date>2021-07-21T15:43:56.123550</dc:date>
        <dc:format>image/svg+xml</dc:format>
        <dc:creator>
          <cc:Agent>
            <dc:title>Matplotlib v3.3.4, https://matplotlib.org/</dc:title>
          </cc:Agent>
        </dc:creator>
      </cc:Work>
    </rdf:RDF>
  </metadata>
  <defs
     id="defs6">
    <style
       type="text/css"
       id="style4">*{stroke-linecap:butt;stroke-linejoin:round;}</style>
    <marker
       inkscape:stockid="Arrow2Mend"
       orient="auto"
       refY="0"
       refX="0"
       id="Arrow2Mend-7-5"
       style="overflow:visible"
       inkscape:isstock="true">
      <path
         inkscape:connector-curvature="0"
         id="path1547-5-6"
         style="fill:#000000;fill-opacity:1;fill-rule:evenodd;stroke:#000000;stroke-width:0.625;stroke-linejoin:round;stroke-opacity:1"
         d="M 8.7185878,4.0337352 -2.2072895,0.01601326 8.7185884,-4.0017078 c -1.7454984,2.3720609 -1.7354408,5.6174519 -6e-7,8.035443 z"
         transform="scale(-0.6)" />
    </marker>
    <marker
       inkscape:stockid="Arrow2Mend"
       orient="auto"
       refY="0"
       refX="0"
       id="Arrow2Mend-7"
       style="overflow:visible"
       inkscape:isstock="true">
      <path
         inkscape:connector-curvature="0"
         id="path1547-5"
         style="fill:#000000;fill-opacity:1;fill-rule:evenodd;stroke:#000000;stroke-width:0.625;stroke-linejoin:round;stroke-opacity:1"
         d="M 8.7185878,4.0337352 -2.2072895,0.01601326 8.7185884,-4.0017078 c -1.7454984,2.3720609 -1.7354408,5.6174519 -6e-7,8.035443 z"
         transform="scale(-0.6)" />
    </marker>
    <marker
       inkscape:stockid="Arrow2Mend"
       orient="auto"
       refY="0"
       refX="0"
       id="Arrow2Mend"
       style="overflow:visible"
       inkscape:isstock="true">
      <path
         inkscape:connector-curvature="0"
         id="path1547"
         style="fill:#000000;fill-opacity:1;fill-rule:evenodd;stroke:#000000;stroke-width:0.625;stroke-linejoin:round;stroke-opacity:1"
         d="M 8.7185878,4.0337352 -2.2072895,0.01601326 8.7185884,-4.0017078 c -1.7454984,2.3720609 -1.7354408,5.6174519 -6e-7,8.035443 z"
         transform="scale(-0.6)" />
    </marker>
  </defs>
  <g
     id="figure_1">
    <g
       id="patch_1">
      <path
         d="M 0 157.00988  L 508.094645 157.00988  L 508.094645 0  L 0 0  z "
         style="fill:#ffffff;"
         id="path8" />
    </g>
    <g
       id="axes_1">
      <g
         id="patch_2">
        <path
           d="M 47.438505 118.977432  L 247.055244 118.977432  L 247.055244 13.681551  L 47.438505 13.681551  z "
           style="fill:#ffffff;"
           id="path11" />
      </g>
      <g
         id="matplotlib.axis_1">
        <g
           id="xtick_1">
          <g
             id="line2d_1">
            <defs
               id="defs15">
              <path
                 d="M 0 0  L 0 3.5  "
                 id="m2fef73b4ae"
                 style="stroke:#000000;stroke-width:0.8;" />
            </defs>
            <g
               id="g19">
              <use
                 style="stroke:#000000;stroke-width:0.8;"
                 x="47.438505"
                 xlink:href="#m2fef73b4ae"
                 y="118.977432"
                 id="use17" />
            </g>
          </g>
          <g
             id="text_1">
            <!-- $\mathdefault{0.0}$ -->
            <g
               transform="translate(41.804991 131.740534)scale(0.0833 -0.0833)"
               id="g32">
              <defs
                 id="defs24">
                <path
                   d="M 42 31.84375  C 42 37.96875 41.90625 48.421875 37.703125 56.453125  C 34 63.484375 28.09375 66 22.90625 66  C 18.09375 66 12 63.78125 8.203125 56.5625  C 4.203125 49.015625 3.796875 39.671875 3.796875 31.84375  C 3.796875 26.109375 3.90625 17.375 7 9.734375  C 11.296875 -0.609375 19 -2 22.90625 -2  C 27.5 -2 34.5 -0.109375 38.59375 9.4375  C 41.59375 16.375 42 24.5 42 31.84375  z M 22.90625 -0.40625  C 16.5 -0.40625 12.703125 5.125 11.296875 12.75  C 10.203125 18.6875 10.203125 27.328125 10.203125 32.953125  C 10.203125 40.6875 10.203125 47.109375 11.5 53.234375  C 13.40625 61.78125 19 64.390625 22.90625 64.390625  C 27 64.390625 32.296875 61.671875 34.203125 53.4375  C 35.5 47.71875 35.59375 40.984375 35.59375 32.953125  C 35.59375 26.421875 35.59375 18.375 34.40625 12.453125  C 32.296875 1.5 26.40625 -0.40625 22.90625 -0.40625  z "
                   id="CMR17-48" />
                <path
                   d="M 18.40625 4.796875  C 18.40625 7.6875 16 9.6875 13.59375 9.6875  C 10.703125 9.6875 8.703125 7.296875 8.703125 4.890625  C 8.703125 2 11.09375 0 13.5 0  C 16.40625 0 18.40625 2.390625 18.40625 4.796875  z "
                   id="CMMI12-58" />
              </defs>
              <use
                 transform="scale(0.996264)"
                 xlink:href="#CMR17-48"
                 id="use26" />
              <use
                 transform="translate(45.690477 0)scale(0.996264)"
                 xlink:href="#CMMI12-58"
                 id="use28" />
              <use
                 transform="translate(72.787654 0)scale(0.996264)"
                 xlink:href="#CMR17-48"
                 id="use30" />
            </g>
          </g>
        </g>
        <g
           id="xtick_2">
          <g
             id="line2d_2">
            <g
               id="g38">
              <use
                 style="stroke:#000000;stroke-width:0.8;"
                 x="87.361853"
                 xlink:href="#m2fef73b4ae"
                 y="118.977432"
                 id="use36" />
            </g>
          </g>
          <g
             id="text_2">
            <!-- $\mathdefault{0.2}$ -->
            <g
               transform="translate(81.728338 131.740534)scale(0.0833 -0.0833)"
               id="g50">
              <defs
                 id="defs42">
                <path
                   d="M 41.703125 15.46875  L 39.90625 15.46875  C 38.90625 8.390625 38.09375 7.1875 37.703125 6.59375  C 37.203125 5.796875 30 5.796875 28.59375 5.796875  L 9.40625 5.796875  C 13 9.6875 20 16.765625 28.5 24.9375  C 34.59375 30.71875 41.703125 37.5 41.703125 47.390625  C 41.703125 59.1875 32.296875 66 21.796875 66  C 10.796875 66 4.09375 56.296875 4.09375 47.296875  C 4.09375 43.390625 7 42.890625 8.203125 42.890625  C 9.203125 42.890625 12.203125 43.484375 12.203125 46.984375  C 12.203125 50.09375 9.59375 51 8.203125 51  C 7.59375 51 7 50.890625 6.59375 50.6875  C 8.5 59.1875 14.296875 63.390625 20.40625 63.390625  C 29.09375 63.390625 34.796875 56.5 34.796875 47.390625  C 34.796875 38.703125 29.703125 31.21875 24 24.734375  L 4.09375 2.296875  L 4.09375 0  L 39.296875 0  z "
                   id="CMR17-50" />
              </defs>
              <use
                 transform="scale(0.996264)"
                 xlink:href="#CMR17-48"
                 id="use44" />
              <use
                 transform="translate(45.690477 0)scale(0.996264)"
                 xlink:href="#CMMI12-58"
                 id="use46" />
              <use
                 transform="translate(72.787654 0)scale(0.996264)"
                 xlink:href="#CMR17-50"
                 id="use48" />
            </g>
          </g>
        </g>
        <g
           id="xtick_3">
          <g
             id="line2d_3">
            <g
               id="g56">
              <use
                 style="stroke:#000000;stroke-width:0.8;"
                 x="127.285201"
                 xlink:href="#m2fef73b4ae"
                 y="118.977432"
                 id="use54" />
            </g>
          </g>
          <g
             id="text_3">
            <!-- $\mathdefault{0.4}$ -->
            <g
               transform="translate(121.651686 131.740534)scale(0.0833 -0.0833)"
               id="g68">
              <defs
                 id="defs60">
                <path
                   d="M 33.59375 64.796875  C 33.59375 66.890625 33.5 67 31.703125 67  L 2 19.59375  L 2 17  L 27.796875 17  L 27.796875 7.1875  C 27.796875 3.59375 27.59375 2.59375 20.59375 2.59375  L 18.703125 2.59375  L 18.703125 0  C 21.90625 0.1875 27.296875 0.1875 30.703125 0.1875  C 34.09375 0.1875 39.5 0.1875 42.703125 0  L 42.703125 2.59375  L 40.796875 2.59375  C 33.796875 2.59375 33.59375 3.59375 33.59375 7.1875  L 33.59375 17  L 43.796875 17  L 43.796875 19.59375  L 33.59375 19.59375  z M 28.09375 58.171875  L 28.09375 19.59375  L 4 19.59375  z "
                   id="CMR17-52" />
              </defs>
              <use
                 transform="scale(0.996264)"
                 xlink:href="#CMR17-48"
                 id="use62" />
              <use
                 transform="translate(45.690477 0)scale(0.996264)"
                 xlink:href="#CMMI12-58"
                 id="use64" />
              <use
                 transform="translate(72.787654 0)scale(0.996264)"
                 xlink:href="#CMR17-52"
                 id="use66" />
            </g>
          </g>
        </g>
        <g
           id="xtick_4">
          <g
             id="line2d_4">
            <g
               id="g74">
              <use
                 style="stroke:#000000;stroke-width:0.8;"
                 x="167.208548"
                 xlink:href="#m2fef73b4ae"
                 y="118.977432"
                 id="use72" />
            </g>
          </g>
          <g
             id="text_4">
            <!-- $\mathdefault{0.6}$ -->
            <g
               transform="translate(161.575034 131.740534)scale(0.0833 -0.0833)"
               id="g86">
              <defs
                 id="defs78">
                <path
                   d="M 10.59375 34.34375  C 10.59375 58 21.796875 63.6875 28.296875 63.6875  C 30.40625 63.6875 35.5 63.265625 37.5 59.09375  C 35.90625 59.09375 32.90625 59.09375 32.90625 55.59375  C 32.90625 52.890625 35.09375 52 36.5 52  C 37.40625 52 40.09375 52.390625 40.09375 55.796875  C 40.09375 62.296875 35.09375 66 28.203125 66  C 16.296875 66 3.796875 53.296875 3.796875 31.421875  C 3.796875 4.015625 15.09375 -2 23.09375 -2  C 32.796875 -2 42 6.734375 42 20.234375  C 42 32.828125 33.90625 42 23.703125 42  C 17.59375 42 13.09375 37.96875 10.59375 30.921875  z M 23.09375 0.390625  C 10.796875 0.390625 10.796875 18.9375 10.796875 22.65625  C 10.796875 29.90625 14.203125 40.390625 23.5 40.390625  C 25.203125 40.390625 30.09375 40.390625 33.40625 33.4375  C 35.203125 29.515625 35.203125 25.375 35.203125 20.34375  C 35.203125 14.90625 35.203125 10.875 33.09375 6.84375  C 30.90625 2.703125 27.703125 0.390625 23.09375 0.390625  z "
                   id="CMR17-54" />
              </defs>
              <use
                 transform="scale(0.996264)"
                 xlink:href="#CMR17-48"
                 id="use80" />
              <use
                 transform="translate(45.690477 0)scale(0.996264)"
                 xlink:href="#CMMI12-58"
                 id="use82" />
              <use
                 transform="translate(72.787654 0)scale(0.996264)"
                 xlink:href="#CMR17-54"
                 id="use84" />
            </g>
          </g>
        </g>
        <g
           id="xtick_5">
          <g
             id="line2d_5">
            <g
               id="g92">
              <use
                 style="stroke:#000000;stroke-width:0.8;"
                 x="207.131896"
                 xlink:href="#m2fef73b4ae"
                 y="118.977432"
                 id="use90" />
            </g>
          </g>
          <g
             id="text_5">
            <!-- $\mathdefault{0.8}$ -->
            <g
               transform="translate(201.498381 131.740534)scale(0.0833 -0.0833)"
               id="g104">
              <defs
                 id="defs96">
                <path
                   d="M 27.203125 35.765625  C 33.5 38.96875 39.90625 43.796875 39.90625 51.53125  C 39.90625 60.6875 31.09375 66 23 66  C 13.90625 66 5.90625 59.375 5.90625 50.234375  C 5.90625 47.71875 6.5 43.390625 10.40625 39.578125  C 11.40625 38.578125 15.59375 35.5625 18.296875 33.65625  C 13.796875 31.34375 3.296875 25.8125 3.296875 14.765625  C 3.296875 4.40625 13.09375 -2 22.796875 -2  C 33.5 -2 42.5 5.71875 42.5 15.96875  C 42.5 25.109375 36.40625 29.328125 32.40625 32.046875  z M 14.09375 44.609375  C 13.296875 45.109375 9.296875 48.21875 9.296875 52.9375  C 9.296875 59.078125 15.59375 63.6875 22.796875 63.6875  C 30.703125 63.6875 36.5 58.0625 36.5 51.53125  C 36.5 42.1875 26.09375 36.859375 25.59375 36.859375  C 25.5 36.859375 25.40625 36.859375 24.59375 37.46875  z M 32.5 24  C 34 22.90625 38.796875 19.578125 38.796875 13.453125  C 38.796875 6.015625 31.40625 0.390625 23 0.390625  C 13.90625 0.390625 7 6.921875 7 14.859375  C 7 22.796875 13.09375 29.4375 20 32.546875  z "
                   id="CMR17-56" />
              </defs>
              <use
                 transform="scale(0.996264)"
                 xlink:href="#CMR17-48"
                 id="use98" />
              <use
                 transform="translate(45.690477 0)scale(0.996264)"
                 xlink:href="#CMMI12-58"
                 id="use100" />
              <use
                 transform="translate(72.787654 0)scale(0.996264)"
                 xlink:href="#CMR17-56"
                 id="use102" />
            </g>
          </g>
        </g>
        <g
           id="xtick_6">
          <g
             id="line2d_6">
            <g
               id="g110">
              <use
                 style="stroke:#000000;stroke-width:0.8;"
                 x="247.055244"
                 xlink:href="#m2fef73b4ae"
                 y="118.977432"
                 id="use108" />
            </g>
          </g>
          <g
             id="text_6">
            <!-- $\mathdefault{1.0}$ -->
            <g
               transform="translate(241.421729 131.740534)scale(0.0833 -0.0833)"
               id="g122">
              <defs
                 id="defs114">
                <path
                   d="M 26.59375 63.796875  C 26.59375 65.890625 26.5 66 25.09375 66  C 21.203125 61.359375 15.296875 59.890625 9.703125 59.6875  C 9.40625 59.6875 8.90625 59.6875 8.796875 59.5  C 8.703125 59.296875 8.703125 59.09375 8.703125 57  C 11.796875 57 17 57.59375 21 59.984375  L 21 7.296875  C 21 3.796875 20.796875 2.59375 12.203125 2.59375  L 9.203125 2.59375  L 9.203125 0  C 14 0.09375 19 0.1875 23.796875 0.1875  C 28.59375 0.1875 33.59375 0.09375 38.40625 0  L 38.40625 2.59375  L 35.40625 2.59375  C 26.796875 2.59375 26.59375 3.6875 26.59375 7.296875  z "
                   id="CMR17-49" />
              </defs>
              <use
                 transform="scale(0.996264)"
                 xlink:href="#CMR17-49"
                 id="use116" />
              <use
                 transform="translate(45.690477 0)scale(0.996264)"
                 xlink:href="#CMMI12-58"
                 id="use118" />
              <use
                 transform="translate(72.787654 0)scale(0.996264)"
                 xlink:href="#CMR17-48"
                 id="use120" />
            </g>
          </g>
        </g>
        <g
           id="xtick_7">
          <g
             id="line2d_7">
            <defs
               id="defs127">
              <path
                 d="M 0 0  L 0 2  "
                 id="m2ac7d4e99f"
                 style="stroke:#000000;stroke-width:0.6;" />
            </defs>
            <g
               id="g131">
              <use
                 style="stroke:#000000;stroke-width:0.6;"
                 x="67.400179"
                 xlink:href="#m2ac7d4e99f"
                 y="118.977432"
                 id="use129" />
            </g>
          </g>
        </g>
        <g
           id="xtick_8">
          <g
             id="line2d_8">
            <g
               id="g137">
              <use
                 style="stroke:#000000;stroke-width:0.6;"
                 x="107.323527"
                 xlink:href="#m2ac7d4e99f"
                 y="118.977432"
                 id="use135" />
            </g>
          </g>
        </g>
        <g
           id="xtick_9">
          <g
             id="line2d_9">
            <g
               id="g143">
              <use
                 style="stroke:#000000;stroke-width:0.6;"
                 x="147.246874"
                 xlink:href="#m2ac7d4e99f"
                 y="118.977432"
                 id="use141" />
            </g>
          </g>
        </g>
        <g
           id="xtick_10">
          <g
             id="line2d_10">
            <g
               id="g149">
              <use
                 style="stroke:#000000;stroke-width:0.6;"
                 x="187.170222"
                 xlink:href="#m2ac7d4e99f"
                 y="118.977432"
                 id="use147" />
            </g>
          </g>
        </g>
        <g
           id="xtick_11">
          <g
             id="line2d_11">
            <g
               id="g155">
              <use
                 style="stroke:#000000;stroke-width:0.6;"
                 x="227.09357"
                 xlink:href="#m2ac7d4e99f"
                 y="118.977432"
                 id="use153" />
            </g>
          </g>
        </g>
        <g
           id="text_7">
          <!-- $t$ -->
          <g
             transform="translate(145.448063 144.272702)scale(0.1 -0.1)"
             id="g164">
            <defs
               id="defs160">
              <path
                 d="M 20.09375 40.09375  L 29.296875 40.09375  C 31.203125 40.09375 32.203125 40.09375 32.203125 41.890625  C 32.203125 43 31.59375 43 29.59375 43  L 20.796875 43  L 24.5 57.25  C 24.90625 58.625 24.90625 58.8125 24.90625 59.5  C 24.90625 61.09375 23.59375 62 22.296875 62  C 21.5 62 19.203125 61.6875 18.40625 58.53125  L 14.5 43  L 5.09375 43  C 3.09375 43 2.203125 43 2.203125 41.09375  C 2.203125 40.09375 2.90625 40.09375 4.796875 40.09375  L 13.703125 40.09375  L 7.09375 13.765625  C 6.296875 10.265625 6 9.265625 6 7.96875  C 6 3.28125 9.296875 -1 14.90625 -1  C 25 -1 30.40625 13.5625 30.40625 14.265625  C 30.40625 14.859375 30 15.15625 29.40625 15.15625  C 29.203125 15.15625 28.796875 15.15625 28.59375 14.75  C 28.5 14.65625 28.40625 14.5625 27.703125 12.96875  C 25.59375 7.96875 21 1 15.203125 1  C 12.203125 1 12 3.484375 12 5.6875  C 12 5.78125 12 7.671875 12.296875 8.875  z "
                 id="CMMI12-116" />
            </defs>
            <use
               transform="scale(0.996264)"
               xlink:href="#CMMI12-116"
               id="use162" />
          </g>
        </g>
      </g>
      <g
         id="matplotlib.axis_2">
        <g
           id="ytick_1">
          <g
             id="line2d_12">
            <defs
               id="defs169">
              <path
                 d="M 0 0  L -3.5 0  "
                 id="m4028ce3f2e"
                 style="stroke:#000000;stroke-width:0.8;" />
            </defs>
            <g
               id="g173">
              <use
                 style="stroke:#000000;stroke-width:0.8;"
                 x="47.438505"
                 xlink:href="#m4028ce3f2e"
                 y="118.977432"
                 id="use171" />
            </g>
          </g>
          <g
             id="text_8">
            <!-- $\mathdefault{−10}$ -->
            <g
               transform="translate(24.76264 121.858983)scale(0.0833 -0.0833)"
               id="g185">
              <defs
                 id="defs177">
                <path
                   d="M 65.90625 23  C 67.59375 23 69.40625 23 69.40625 25  C 69.40625 27 67.59375 27 65.90625 27  L 11.796875 27  C 10.09375 27 8.296875 27 8.296875 25  C 8.296875 23 10.09375 23 11.796875 23  z "
                   id="CMSY10-0" />
              </defs>
              <use
                 transform="scale(0.996264)"
                 xlink:href="#CMSY10-0"
                 id="use179" />
              <use
                 transform="translate(77.487468 0)scale(0.996264)"
                 xlink:href="#CMR17-49"
                 id="use181" />
              <use
                 transform="translate(123.177945 0)scale(0.996264)"
                 xlink:href="#CMR17-48"
                 id="use183" />
            </g>
          </g>
        </g>
        <g
           id="ytick_2">
          <g
             id="line2d_13">
            <g
               id="g191">
              <use
                 style="stroke:#000000;stroke-width:0.8;"
                 x="47.438505"
                 xlink:href="#m4028ce3f2e"
                 y="92.653462"
                 id="use189" />
            </g>
          </g>
          <g
             id="text_9">
            <!-- $\mathdefault{−5}$ -->
            <g
               transform="translate(29.171476 95.535013)scale(0.0833 -0.0833)"
               id="g201">
              <defs
                 id="defs195">
                <path
                   d="M 11.40625 58.59375  C 12.40625 58.1875 16.5 56.890625 20.703125 56.890625  C 30 56.890625 35.09375 61.890625 38 64.6875  C 38 65.484375 38 66 37.40625 66  C 37.296875 66 37.09375 66 36.296875 65.59375  C 32.796875 64.09375 28.703125 63 23.703125 63  C 20.703125 63 16.203125 63.359375 11.296875 65.484375  C 10.203125 66 10 66 9.90625 66  C 9.40625 66 9.296875 65.890625 9.296875 63.90625  L 9.296875 34.859375  C 9.296875 33.015625 9.296875 32.5 10.296875 32.5  C 10.796875 32.5 11 32.703125 11.5 33.421875  C 14.703125 38.046875 19.09375 40 24.09375 40  C 27.59375 40 35.09375 37.734375 35.09375 20.203125  C 35.09375 16.984375 35.09375 11.1875 32.09375 6.59375  C 29.59375 2.484375 25.703125 0.390625 21.40625 0.390625  C 14.796875 0.390625 8.09375 4.984375 6.296875 12.6875  C 6.703125 12.59375 7.5 12.390625 7.90625 12.390625  C 9.203125 12.390625 11.703125 13.09375 11.703125 16.1875  C 11.703125 18.890625 9.796875 20 7.90625 20  C 5.59375 20 4.09375 18.59375 4.09375 15.796875  C 4.09375 7.09375 11 -2 21.59375 -2  C 31.90625 -2 41.703125 6.890625 41.703125 19.796875  C 41.703125 32.09375 33.90625 41.59375 24.203125 41.59375  C 19.09375 41.59375 14.796875 39.6875 11.40625 36  z "
                   id="CMR17-53" />
              </defs>
              <use
                 transform="scale(0.996264)"
                 xlink:href="#CMSY10-0"
                 id="use197" />
              <use
                 transform="translate(77.487468 0)scale(0.996264)"
                 xlink:href="#CMR17-53"
                 id="use199" />
            </g>
          </g>
        </g>
        <g
           id="ytick_3">
          <g
             id="line2d_14">
            <g
               id="g207">
              <use
                 style="stroke:#000000;stroke-width:0.8;"
                 x="47.438505"
                 xlink:href="#m4028ce3f2e"
                 y="66.329492"
                 id="use205" />
            </g>
          </g>
          <g
             id="text_10">
            <!-- $\mathdefault{0}$ -->
            <g
               transform="translate(36.029669 69.211043)scale(0.0833 -0.0833)"
               id="g212">
              <use
                 transform="scale(0.996264)"
                 xlink:href="#CMR17-48"
                 id="use210" />
            </g>
          </g>
        </g>
        <g
           id="ytick_4">
          <g
             id="line2d_15">
            <g
               id="g218">
              <use
                 style="stroke:#000000;stroke-width:0.8;"
                 x="47.438505"
                 xlink:href="#m4028ce3f2e"
                 y="40.005521"
                 id="use216" />
            </g>
          </g>
          <g
             id="text_11">
            <!-- $\mathdefault{5}$ -->
            <g
               transform="translate(36.029669 42.887072)scale(0.0833 -0.0833)"
               id="g223">
              <use
                 transform="scale(0.996264)"
                 xlink:href="#CMR17-53"
                 id="use221" />
            </g>
          </g>
        </g>
        <g
           id="ytick_5">
          <g
             id="line2d_16">
            <g
               id="g229">
              <use
                 style="stroke:#000000;stroke-width:0.8;"
                 x="47.438505"
                 xlink:href="#m4028ce3f2e"
                 y="13.681551"
                 id="use227" />
            </g>
          </g>
          <g
             id="text_12">
            <!-- $\mathdefault{10}$ -->
            <g
               transform="translate(31.620833 16.563102)scale(0.0833 -0.0833)"
               id="g236">
              <use
                 transform="scale(0.996264)"
                 xlink:href="#CMR17-49"
                 id="use232" />
              <use
                 transform="translate(45.690477 0)scale(0.996264)"
                 xlink:href="#CMR17-48"
                 id="use234" />
            </g>
          </g>
        </g>
        <g
           id="text_13">
          <!-- $x_i(t)$ -->
          <g
             transform="translate(18.27198 76.508058)rotate(-90)scale(0.1 -0.1)"
             id="g256">
            <defs
               id="defs244">
              <path
                 d="M 47.40625 41  C 44.203125 40.390625 43 37.984375 43 36.09375  C 43 33.6875 44.90625 32.890625 46.296875 32.890625  C 49.296875 32.890625 51.40625 35.484375 51.40625 38.1875  C 51.40625 42.09375 46.59375 44 42.40625 44  C 36.296875 44 32.90625 38.296875 32 36.390625  C 29.703125 43.59375 23.5 44 21.703125 44  C 11.5 44 6.09375 31.140625 6.09375 28.890625  C 6.09375 28.484375 6.5 27.96875 7.203125 27.96875  C 8 27.96875 8.203125 28.578125 8.40625 28.984375  C 11.796875 40.1875 18.5 41.984375 21.40625 41.984375  C 25.90625 41.984375 26.796875 38.09375 26.796875 35.6875  C 26.796875 33.484375 26.203125 31.140625 25 26.21875  L 21.59375 12.15625  C 20.09375 6.09375 17.203125 1 11.90625 1  C 11.40625 1 8.90625 1 6.796875 1.96875  C 10.40625 2.59375 11.203125 5.59375 11.203125 6.796875  C 11.203125 8.796875 9.703125 10 7.796875 10  C 5.40625 10 2.796875 7.890625 2.796875 4.6875  C 2.796875 0.890625 7.5 -1 11.796875 -1  C 16.59375 -1 20 2.390625 22.09375 6.484375  C 23.703125 1 28.703125 -1 32.40625 -1  C 42.59375 -1 48 11.734375 48 14  C 48 14.515625 47.59375 14.921875 47 14.921875  C 46.09375 14.921875 46 14.40625 45.703125 13.59375  C 43 4.6875 37.203125 1 32.703125 1  C 29.203125 1 27.296875 3.1875 27.296875 7.296875  C 27.296875 9.484375 27.703125 11.125 29.296875 17.90625  L 32.796875 31.859375  C 34.296875 37.890625 37.703125 41.984375 42.296875 41.984375  C 42.5 41.984375 45.296875 41.984375 47.40625 41  z "
                 id="CMMI12-120" />
              <path
                 d="M 28.296875 14.265625  C 28.296875 14.765625 27.90625 15.15625 27.296875 15.15625  C 26.40625 15.15625 26.296875 14.859375 25.796875 13.15625  C 23.203125 4.078125 19.09375 1 15.796875 1  C 14.59375 1 13.203125 1.296875 13.203125 4.28125  C 13.203125 6.984375 14.40625 9.96875 15.5 12.96875  L 22.5 31.515625  C 22.796875 32.3125 23.5 34.109375 23.5 36.015625  C 23.5 40.203125 20.5 44 15.59375 44  C 6.40625 44 2.703125 29.53125 2.703125 28.71875  C 2.703125 28.328125 3.09375 27.828125 3.796875 27.828125  C 4.703125 27.828125 4.796875 28.234375 5.203125 29.625  C 7.59375 38 11.40625 41.984375 15.296875 41.984375  C 16.203125 41.984375 17.90625 41.890625 17.90625 38.703125  C 17.90625 36.109375 16.59375 32.8125 15.796875 30.625  L 8.796875 12.0625  C 8.203125 10.46875 7.59375 8.875 7.59375 7.078125  C 7.59375 2.59375 10.703125 -1 15.5 -1  C 24.703125 -1 28.296875 13.5625 28.296875 14.265625  z M 27.5 62.6875  C 27.5 64.1875 26.296875 66 24.09375 66  C 21.796875 66 19.203125 63.796875 19.203125 61.1875  C 19.203125 58.6875 21.296875 57.890625 22.5 57.890625  C 25.203125 57.890625 27.5 60.484375 27.5 62.6875  z "
                 id="CMMI12-105" />
              <path
                 d="M 30.59375 -24.40625  C 30.59375 -24.3125 30.59375 -24.109375 30.296875 -23.8125  C 25.703125 -19.109375 13.40625 -6.296875 13.40625 24.9375  C 13.40625 56.171875 25.5 68.875 30.40625 73.890625  C 30.40625 73.984375 30.59375 74.1875 30.59375 74.484375  C 30.59375 74.796875 30.296875 75 29.90625 75  C 28.796875 75 20.296875 67.578125 15.40625 56.5625  C 10.40625 45.453125 9 34.65625 9 25.046875  C 9 17.828125 9.703125 5.625 15.703125 -7.296875  C 20.5 -17.703125 28.703125 -25 29.90625 -25  C 30.40625 -25 30.59375 -24.8125 30.59375 -24.40625  z "
                 id="CMR17-40" />
              <path
                 d="M 26.296875 24.9375  C 26.296875 32.140625 25.59375 44.359375 19.59375 57.265625  C 14.796875 67.6875 6.59375 75 5.40625 75  C 5.09375 75 4.703125 74.890625 4.703125 74.390625  C 4.703125 74.1875 4.796875 74.09375 4.90625 73.890625  C 9.703125 68.875 21.90625 56.171875 21.90625 25.046875  C 21.90625 -6.1875 9.796875 -18.90625 4.90625 -23.90625  C 4.796875 -24.109375 4.703125 -24.203125 4.703125 -24.40625  C 4.703125 -24.90625 5.09375 -25 5.40625 -25  C 6.5 -25 15 -17.609375 19.90625 -6.59375  C 24.90625 4.515625 26.296875 15.328125 26.296875 24.9375  z "
                 id="CMR17-41" />
            </defs>
            <use
               transform="scale(0.996264)"
               xlink:href="#CMMI12-120"
               id="use246" />
            <use
               transform="translate(55.43406 -14.943915)scale(0.697382)"
               xlink:href="#CMMI12-105"
               id="use248" />
            <use
               transform="translate(79.227099 0)scale(0.996264)"
               xlink:href="#CMR17-40"
               id="use250" />
            <use
               transform="translate(114.507867 0)scale(0.996264)"
               xlink:href="#CMMI12-116"
               id="use252" />
            <use
               transform="translate(149.734197 0)scale(0.996264)"
               xlink:href="#CMR17-41"
               id="use254" />
          </g>
        </g>
      </g>
      <g
         id="line2d_17">
        <path
           clip-path="url(#p38b3bc304c)"
           d="M 47.438505 61.064698  L 50.82184 57.314736  L 54.205174 53.868982  L 57.588509 50.727298  L 60.971843 47.889416  L 64.355178 45.355044  L 67.738513 43.123871  L 71.121847 41.195482  L 74.505182 39.568942  L 77.888516 38.242267  L 81.271851 37.212599  L 84.655185 36.476987  L 88.03852 36.032557  L 91.421854 35.876475  L 94.805189 36.005652  L 98.188524 36.416063  L 101.571858 37.103294  L 104.955193 38.063059  L 108.338527 39.291188  L 111.721862 40.783572  L 115.105196 42.535552  L 118.488531 44.539739  L 121.871865 46.78382  L 125.2552 49.251077  L 128.638534 51.913792  L 132.021869 54.72928  L 135.405204 57.658977  L 138.788538 60.67554  L 142.171873 63.758476  L 145.555207 66.890657  L 148.938542 70.054946  L 152.321876 73.229842  L 155.705211 76.382261  L 159.088545 79.45361  L 162.47188 82.356036  L 165.855214 85.019411  L 169.238549 87.415622  L 172.621884 89.53758  L 176.005218 91.383717  L 179.388553 92.953225  L 182.771887 94.245401  L 186.155222 95.259637  L 189.538556 95.995397  L 192.921891 96.452209  L 196.305225 96.629642  L 199.68856 96.527304  L 203.071895 96.144827  L 206.455229 95.481937  L 209.838564 94.539414  L 213.221898 93.319183  L 216.605233 91.823357  L 219.988567 90.054112  L 223.371902 88.01383  L 226.755236 85.704932  L 230.138571 83.130358  L 233.521905 80.294148  L 236.90524 77.20052  L 240.288575 73.853497  L 243.671909 70.256964  L 247.055244 66.414588  "
           style="fill:none;stroke:#1f77b4;stroke-linecap:square;stroke-width:1.5;"
           id="path260" />
      </g>
      <g
         id="line2d_18">
        <path
           clip-path="url(#p38b3bc304c)"
           d="M 47.438505 66.329492  L 50.82184 66.20755  L 54.205174 66.024683  L 57.588509 65.786045  L 60.971843 65.496784  L 64.355178 65.162043  L 67.738513 64.786963  L 71.121847 64.376674  L 74.505182 63.9363  L 77.888516 63.470939  L 81.271851 62.985646  L 84.655185 62.485428  L 88.03852 61.97524  L 91.421854 61.459992  L 94.805189 60.944542  L 98.188524 60.43369  L 101.571858 59.932163  L 104.955193 59.444612  L 108.338527 58.975618  L 111.721862 58.529692  L 115.105196 58.111274  L 118.488531 57.724703  L 121.871865 57.374155  L 125.2552 57.063559  L 128.638534 56.796482  L 132.021869 56.575887  L 135.405204 56.404015  L 138.788538 56.282555  L 142.171873 56.212799  L 145.555207 56.195722  L 148.938542 56.232017  L 152.321876 56.322055  L 155.705211 56.465761  L 159.088545 56.662309  L 162.47188 56.909596  L 165.855214 57.204112  L 169.238549 57.54152  L 172.621884 57.917219  L 176.005218 58.326547  L 179.388553 58.764826  L 182.771887 59.227362  L 186.155222 59.709453  L 189.538556 60.206385  L 192.921891 60.713438  L 196.305225 61.22588  L 199.68856 61.73898  L 203.071895 62.247993  L 206.455229 62.748168  L 209.838564 63.234762  L 213.221898 63.703054  L 216.605233 64.148358  L 219.988567 64.566019  L 223.371902 64.95143  L 226.755236 65.300016  L 230.138571 65.607253  L 233.521905 65.868672  L 236.90524 66.079876  L 240.288575 66.236538  L 243.671909 66.334399  L 247.055244 66.369263  "
           style="fill:none;stroke:#ff7f0e;stroke-linecap:square;stroke-width:1.5;"
           id="path263" />
      </g>
      <g
         id="line2d_19">
        <path
           clip-path="url(#p38b3bc304c)"
           d="M 47.438505 66.329492  L 50.82184 66.328529  L 54.205174 66.324968  L 57.588509 66.317823  L 60.971843 66.306191  L 64.355178 66.289261  L 67.738513 66.266305  L 71.121847 66.236685  L 74.505182 66.199847  L 77.888516 66.155326  L 81.271851 66.102742  L 84.655185 66.041801  L 88.03852 65.972291  L 91.421854 65.894086  L 94.805189 65.807142  L 98.188524 65.711496  L 101.571858 65.607267  L 104.955193 65.494653  L 108.338527 65.37393  L 111.721862 65.245449  L 115.105196 65.109641  L 118.488531 64.967009  L 121.871865 64.818126  L 125.2552 64.663639  L 128.638534 64.504253  L 132.021869 64.340734  L 135.405204 64.173888  L 138.788538 64.004555  L 142.171873 63.833601  L 145.555207 63.661911  L 148.938542 63.490382  L 152.321876 63.319924  L 155.705211 63.151446  L 159.088545 62.985852  L 162.47188 62.824022  L 165.855214 62.666787  L 169.238549 62.514911  L 172.621884 62.369082  L 176.005218 62.229911  L 179.388553 62.097925  L 182.771887 61.973577  L 186.155222 61.857237  L 189.538556 61.749199  L 192.921891 61.649672  L 196.305225 61.558789  L 199.68856 61.476602  L 203.071895 61.403081  L 206.455229 61.338118  L 209.838564 61.281523  L 213.221898 61.233025  L 216.605233 61.192276  L 219.988567 61.158848  L 223.371902 61.132233  L 226.755236 61.111848  L 230.138571 61.097028  L 233.521905 61.087038  L 236.90524 61.081064  L 240.288575 61.078219  L 243.671909 61.077544  L 247.055244 61.078007  "
           style="fill:none;stroke:#2ca02c;stroke-linecap:square;stroke-width:1.5;"
           id="path266" />
      </g>
      <g
         id="patch_3">
        <path
           d="M 47.438505 118.977432  L 47.438505 13.681551  "
           style="fill:none;stroke:#000000;stroke-linecap:square;stroke-linejoin:miter;stroke-width:0.8;"
           id="path269" />
      </g>
      <g
         id="patch_4">
        <path
           d="M 247.055244 118.977432  L 247.055244 13.681551  "
           style="fill:none;stroke:#000000;stroke-linecap:square;stroke-linejoin:miter;stroke-width:0.8;"
           id="path272" />
      </g>
      <g
         id="patch_5">
        <path
           d="M 47.438505 118.977432  L 247.055244 118.977432  "
           style="fill:none;stroke:#000000;stroke-linecap:square;stroke-linejoin:miter;stroke-width:0.8;"
           id="path275" />
      </g>
      <g
         id="patch_6">
        <path
           d="M 47.438505 13.681551  L 247.055244 13.681551  "
           style="fill:none;stroke:#000000;stroke-linecap:square;stroke-linejoin:miter;stroke-width:0.8;"
           id="path278" />
      </g>
      <g
         id="text_14">
        <g
           id="patch_7">
          <path
             d="M 51.43084 27.754758  L 64.160919 27.754758  L 64.160919 17.792118  L 51.43084 17.792118  z "
             style="fill:#ffffff;opacity:0.7;"
             id="path281" />
        </g>
        <!-- (a) -->
        <g
           transform="translate(51.43084 25.264098)scale(0.1 -0.1)"
           id="g293">
          <defs
             id="defs285">
            <path
               d="M 36 25.875  C 36 32 36 35.546875 31.796875 39.59375  C 28.09375 42.984375 23.796875 44 20.40625 44  C 12.5 44 6.796875 37.625 6.796875 30.890625  C 6.796875 27.1875 9.796875 27 10.40625 27  C 11.703125 27 14 27.796875 14 30.59375  C 14 33.09375 12.09375 34.1875 10.40625 34.1875  C 10 34.1875 9.5 34.09375 9.203125 34  C 11.296875 40.53125 16.703125 42.390625 20.203125 42.390625  C 25.203125 42.390625 30.703125 37.828125 30.703125 29.296875  L 30.703125 25.5  C 24.796875 25.296875 17.703125 24.5 12.09375 21.453125  C 5.796875 17.921875 4 12.84375 4 9  C 4 1.203125 13 -1 18.296875 -1  C 23.796875 -1 28.90625 2.109375 31.09375 7.890625  C 31.296875 3.421875 34.09375 -0.609375 38.5 -0.609375  C 40.59375 -0.609375 45.90625 0.796875 45.90625 8.796875  L 45.90625 14.46875  L 44.09375 14.46875  L 44.09375 8.703125  C 44.09375 2.515625 41.40625 1.703125 40.09375 1.703125  C 36 1.703125 36 6.96875 36 11.4375  z M 30.703125 13.859375  C 30.703125 5.046875 24.5 0.59375 19 0.59375  C 14 0.59375 10.09375 4.34375 10.09375 9  C 10.09375 12.046875 11.40625 17.40625 17.203125 20.65625  C 22 23.390625 27.5 23.796875 30.703125 24  z "
               id="CMR17-97" />
          </defs>
          <use
             transform="scale(0.996264)"
             xlink:href="#CMR17-40"
             id="use287" />
          <use
             transform="translate(35.280768 0)scale(0.996264)"
             xlink:href="#CMR17-97"
             id="use289" />
          <use
             transform="translate(80.971245 0)scale(0.996264)"
             xlink:href="#CMR17-41"
             id="use291" />
        </g>
      </g>
      <g
         id="legend_1">
        <g
           id="line2d_20">
          <path
             d="M 84.967831 24.059135  L 100.967831 24.059135  "
             style="fill:none;stroke:#1f77b4;stroke-linecap:square;stroke-width:1.5;"
             id="path296" />
        </g>
        <g
           id="line2d_21" />
        <g
           id="text_15">
          <!-- $x_1(t)$ -->
          <g
             transform="translate(107.367831 26.859135)scale(0.08 -0.08)"
             id="g310">
            <use
               transform="scale(0.996264)"
               xlink:href="#CMMI12-120"
               id="use300" />
            <use
               transform="translate(55.43406 -14.943915)scale(0.697382)"
               xlink:href="#CMR17-49"
               id="use302" />
            <use
               transform="translate(87.915374 0)scale(0.996264)"
               xlink:href="#CMR17-40"
               id="use304" />
            <use
               transform="translate(123.196141 0)scale(0.996264)"
               xlink:href="#CMMI12-116"
               id="use306" />
            <use
               transform="translate(158.422472 0)scale(0.996264)"
               xlink:href="#CMR17-41"
               id="use308" />
          </g>
        </g>
        <g
           id="line2d_22">
          <path
             d="M 141.930302 24.059135  L 157.930302 24.059135  "
             style="fill:none;stroke:#ff7f0e;stroke-linecap:square;stroke-width:1.5;"
             id="path313" />
        </g>
        <g
           id="line2d_23" />
        <g
           id="text_16">
          <!-- $x_2(t)$ -->
          <g
             transform="translate(164.330302 26.859135)scale(0.08 -0.08)"
             id="g327">
            <use
               transform="scale(0.996264)"
               xlink:href="#CMMI12-120"
               id="use317" />
            <use
               transform="translate(55.43406 -14.943915)scale(0.697382)"
               xlink:href="#CMR17-50"
               id="use319" />
            <use
               transform="translate(87.915374 0)scale(0.996264)"
               xlink:href="#CMR17-40"
               id="use321" />
            <use
               transform="translate(123.196141 0)scale(0.996264)"
               xlink:href="#CMMI12-116"
               id="use323" />
            <use
               transform="translate(158.422472 0)scale(0.996264)"
               xlink:href="#CMR17-41"
               id="use325" />
          </g>
        </g>
        <g
           id="line2d_24">
          <path
             d="M 198.892773 24.059135  L 214.892773 24.059135  "
             style="fill:none;stroke:#2ca02c;stroke-linecap:square;stroke-width:1.5;"
             id="path330" />
        </g>
        <g
           id="line2d_25" />
        <g
           id="text_17">
          <!-- $x_3(t)$ -->
          <g
             transform="translate(221.292773 26.859135)scale(0.08 -0.08)"
             id="g347">
            <defs
               id="defs335">
              <path
                 d="M 22.09375 34  C 31 34 34.90625 26.140625 34.90625 17.09375  C 34.90625 5.03125 28.5 0.390625 22.703125 0.390625  C 17.40625 0.390625 8.796875 3.015625 6.09375 10.796875  C 6.59375 10.59375 7.09375 10.59375 7.59375 10.59375  C 10 10.59375 11.796875 12.1875 11.796875 14.796875  C 11.796875 17.6875 9.59375 19 7.59375 19  C 5.90625 19 3.296875 18.1875 3.296875 14.484375  C 3.296875 5.234375 12.296875 -2 22.90625 -2  C 34 -2 42.5 6.75 42.5 16.984375  C 42.5 26.84375 34.5 34 25 35.09375  C 32.59375 36.671875 39.90625 43.375 39.90625 52.390625  C 39.90625 60.25 32 66 23 66  C 13.90625 66 5.90625 60.34375 5.90625 52.296875  C 5.90625 48.796875 8.5 48.1875 9.796875 48.1875  C 11.90625 48.1875 13.703125 49.484375 13.703125 52.09375  C 13.703125 54.6875 11.90625 56 9.796875 56  C 9.40625 56 8.90625 56 8.5 55.796875  C 11.40625 62.484375 19.296875 63.6875 22.796875 63.6875  C 26.296875 63.6875 32.90625 61.96875 32.90625 52.296875  C 32.90625 49.484375 32.5 44.546875 29.09375 40.21875  C 26.09375 36.390625 22.703125 36.1875 19.40625 35.890625  C 18.90625 35.890625 16.59375 35.6875 16.203125 35.6875  C 15.5 35.59375 15.09375 35.5 15.09375 34.796875  C 15.09375 34.09375 15.203125 34 17.203125 34  z "
                 id="CMR17-51" />
            </defs>
            <use
               transform="scale(0.996264)"
               xlink:href="#CMMI12-120"
               id="use337" />
            <use
               transform="translate(55.43406 -14.943915)scale(0.697382)"
               xlink:href="#CMR17-51"
               id="use339" />
            <use
               transform="translate(87.915374 0)scale(0.996264)"
               xlink:href="#CMR17-40"
               id="use341" />
            <use
               transform="translate(123.196141 0)scale(0.996264)"
               xlink:href="#CMMI12-116"
               id="use343" />
            <use
               transform="translate(158.422472 0)scale(0.996264)"
               xlink:href="#CMR17-41"
               id="use345" />
          </g>
        </g>
      </g>
      <g
         id="line2d_26">
        <path
           clip-path="url(#p38b3bc304c)"
           d="M 47.438505 61.064698  L 50.82184 56.760019  L 54.205174 52.928007  L 57.588509 49.551761  L 60.971843 46.614379  L 64.355178 44.098957  L 67.738513 41.988596  L 71.121847 40.26639  L 74.505182 38.915439  L 77.888516 37.918841  L 81.271851 37.259695  L 84.655185 36.9211  L 88.03852 36.886152  L 91.421854 37.137948  L 94.805189 37.659592  L 98.188524 38.434173  L 101.571858 39.444795  L 104.955193 40.674554  L 108.338527 42.106544  L 111.721862 43.723871  L 115.105196 45.509626  L 118.488531 47.44691  L 121.871865 49.518819  L 125.2552 51.70845  L 128.638534 53.9989  L 132.021869 56.373265  L 135.405204 58.814644  L 138.788538 61.306139  L 142.171873 63.830837  L 145.555207 66.371838  L 148.938542 68.912243  L 152.321876 71.435133  L 155.705211 73.923624  L 159.088545 76.360799  L 162.47188 78.729749  L 165.855214 81.013584  L 169.238549 83.195381  L 172.621884 85.258253  L 176.005218 87.185277  L 179.388553 88.959561  L 182.771887 90.564193  L 186.155222 91.982263  L 189.538556 93.196861  L 192.921891 94.191089  L 196.305225 94.94803  L 199.68856 95.45078  L 203.071895 95.68243  L 206.455229 95.62607  L 209.838564 95.264794  L 213.221898 94.581685  L 216.605233 93.559837  L 219.988567 92.182343  L 223.371902 90.432284  L 226.755236 88.292758  L 230.138571 85.746836  L 233.521905 82.777617  L 236.90524 79.368199  L 240.288575 75.501643  L 243.671909 71.161063  L 247.055244 66.329516  "
           style="fill:none;stroke:#000000;stroke-dasharray:5.55,2.4;stroke-dashoffset:0;stroke-opacity:0.6;stroke-width:1.5;"
           id="path351" />
      </g>
      <g
         id="line2d_27">
        <path
           clip-path="url(#p38b3bc304c)"
           d="M 47.438505 66.329492  L 50.82184 66.20253  L 54.205174 66.006717  L 57.588509 65.749915  L 60.971843 65.439699  L 64.355178 65.083357  L 67.738513 64.687894  L 71.121847 64.260025  L 74.505182 63.806182  L 77.888516 63.332508  L 81.271851 62.844861  L 84.655185 62.348814  L 88.03852 61.849651  L 91.421854 61.352372  L 94.805189 60.861691  L 98.188524 60.382032  L 101.571858 59.917538  L 104.955193 59.472063  L 108.338527 59.049174  L 111.721862 58.652153  L 115.105196 58.283996  L 118.488531 57.947412  L 121.871865 57.644825  L 125.2552 57.37837  L 128.638534 57.149899  L 132.021869 56.960975  L 135.405204 56.812877  L 138.788538 56.706597  L 142.171873 56.64284  L 145.555207 56.622024  L 148.938542 56.644283  L 152.321876 56.709464  L 155.705211 56.817128  L 159.088545 56.966548  L 162.47188 57.156711  L 165.855214 57.38632  L 169.238549 57.653789  L 172.621884 57.957248  L 176.005218 58.294538  L 179.388553 58.663218  L 182.771887 59.060556  L 186.155222 59.483536  L 189.538556 59.928855  L 192.921891 60.392924  L 196.305225 60.871867  L 199.68856 61.361526  L 203.071895 61.857448  L 206.455229 62.354901  L 209.838564 62.848863  L 213.221898 63.334029  L 216.605233 63.804805  L 219.988567 64.255308  L 223.371902 64.679375  L 226.755236 65.070551  L 230.138571 65.4221  L 233.521905 65.726993  L 236.90524 65.977919  L 240.288575 66.167281  L 243.671909 66.287192  L 247.055244 66.329482  "
           style="fill:none;stroke:#000000;stroke-dasharray:5.55,2.4;stroke-dashoffset:0;stroke-opacity:0.6;stroke-width:1.5;"
           id="path354" />
      </g>
      <g
         id="line2d_28">
        <path
           clip-path="url(#p38b3bc304c)"
           d="M 47.438505 66.329492  L 50.82184 66.328498  L 54.205174 66.32475  L 57.588509 66.31715  L 60.971843 66.304728  L 64.355178 66.286644  L 67.738513 66.262177  L 71.121847 66.230721  L 74.505182 66.191785  L 77.888516 66.144979  L 81.271851 66.09002  L 84.655185 66.026718  L 88.03852 65.954977  L 91.421854 65.874788  L 94.805189 65.786222  L 98.188524 65.68943  L 101.571858 65.584634  L 104.955193 65.472125  L 108.338527 65.352255  L 111.721862 65.225436  L 115.105196 65.09213  L 118.488531 64.952853  L 121.871865 64.808157  L 125.2552 64.65864  L 128.638534 64.504928  L 132.021869 64.347678  L 135.405204 64.187572  L 138.788538 64.025311  L 142.171873 63.861609  L 145.555207 63.69719  L 148.938542 63.532783  L 152.321876 63.369118  L 155.705211 63.206918  L 159.088545 63.046896  L 162.47188 62.889753  L 165.855214 62.736167  L 169.238549 62.586794  L 172.621884 62.44226  L 176.005218 62.303156  L 179.388553 62.170036  L 182.771887 62.043409  L 186.155222 61.923735  L 189.538556 61.811421  L 192.921891 61.706816  L 196.305225 61.610205  L 199.68856 61.521806  L 203.071895 61.441762  L 206.455229 61.370142  L 209.838564 61.30693  L 213.221898 61.25202  L 216.605233 61.205219  L 219.988567 61.166234  L 223.371902 61.134669  L 226.755236 61.110025  L 230.138571 61.091686  L 233.521905 61.078924  L 236.90524 61.070888  L 240.288575 61.0666  L 243.671909 61.064953  L 247.055244 61.064701  "
           style="fill:none;stroke:#000000;stroke-dasharray:5.55,2.4;stroke-dashoffset:0;stroke-opacity:0.6;stroke-width:1.5;"
           id="path357" />
      </g>
    </g>
    <g
       id="axes_2">
      <g
         id="patch_8">
        <path
           d="M 297.677907 118.977432  L 497.294645 118.977432  L 497.294645 13.681551  L 297.677907 13.681551  z "
           style="fill:#ffffff;"
           id="path361" />
      </g>
      <g
         id="matplotlib.axis_3">
        <g
           id="xtick_12">
          <g
             id="line2d_29">
            <g
               id="g366">
              <use
                 style="stroke:#000000;stroke-width:0.8;"
                 x="297.677907"
                 xlink:href="#m2fef73b4ae"
                 y="118.977432"
                 id="use364" />
            </g>
          </g>
          <g
             id="text_18">
            <!-- $\mathdefault{0.0}$ -->
            <g
               transform="translate(292.044392 131.740534)scale(0.0833 -0.0833)"
               id="g375">
              <use
                 transform="scale(0.996264)"
                 xlink:href="#CMR17-48"
                 id="use369" />
              <use
                 transform="translate(45.690477 0)scale(0.996264)"
                 xlink:href="#CMMI12-58"
                 id="use371" />
              <use
                 transform="translate(72.787654 0)scale(0.996264)"
                 xlink:href="#CMR17-48"
                 id="use373" />
            </g>
          </g>
        </g>
        <g
           id="xtick_13">
          <g
             id="line2d_30">
            <g
               id="g381">
              <use
                 style="stroke:#000000;stroke-width:0.8;"
                 x="337.601254"
                 xlink:href="#m2fef73b4ae"
                 y="118.977432"
                 id="use379" />
            </g>
          </g>
          <g
             id="text_19">
            <!-- $\mathdefault{0.2}$ -->
            <g
               transform="translate(331.96774 131.740534)scale(0.0833 -0.0833)"
               id="g390">
              <use
                 transform="scale(0.996264)"
                 xlink:href="#CMR17-48"
                 id="use384" />
              <use
                 transform="translate(45.690477 0)scale(0.996264)"
                 xlink:href="#CMMI12-58"
                 id="use386" />
              <use
                 transform="translate(72.787654 0)scale(0.996264)"
                 xlink:href="#CMR17-50"
                 id="use388" />
            </g>
          </g>
        </g>
        <g
           id="xtick_14">
          <g
             id="line2d_31">
            <g
               id="g396">
              <use
                 style="stroke:#000000;stroke-width:0.8;"
                 x="377.524602"
                 xlink:href="#m2fef73b4ae"
                 y="118.977432"
                 id="use394" />
            </g>
          </g>
          <g
             id="text_20">
            <!-- $\mathdefault{0.4}$ -->
            <g
               transform="translate(371.891088 131.740534)scale(0.0833 -0.0833)"
               id="g405">
              <use
                 transform="scale(0.996264)"
                 xlink:href="#CMR17-48"
                 id="use399" />
              <use
                 transform="translate(45.690477 0)scale(0.996264)"
                 xlink:href="#CMMI12-58"
                 id="use401" />
              <use
                 transform="translate(72.787654 0)scale(0.996264)"
                 xlink:href="#CMR17-52"
                 id="use403" />
            </g>
          </g>
        </g>
        <g
           id="xtick_15">
          <g
             id="line2d_32">
            <g
               id="g411">
              <use
                 style="stroke:#000000;stroke-width:0.8;"
                 x="417.44795"
                 xlink:href="#m2fef73b4ae"
                 y="118.977432"
                 id="use409" />
            </g>
          </g>
          <g
             id="text_21">
            <!-- $\mathdefault{0.6}$ -->
            <g
               transform="translate(411.814435 131.740534)scale(0.0833 -0.0833)"
               id="g420">
              <use
                 transform="scale(0.996264)"
                 xlink:href="#CMR17-48"
                 id="use414" />
              <use
                 transform="translate(45.690477 0)scale(0.996264)"
                 xlink:href="#CMMI12-58"
                 id="use416" />
              <use
                 transform="translate(72.787654 0)scale(0.996264)"
                 xlink:href="#CMR17-54"
                 id="use418" />
            </g>
          </g>
        </g>
        <g
           id="xtick_16">
          <g
             id="line2d_33">
            <g
               id="g426">
              <use
                 style="stroke:#000000;stroke-width:0.8;"
                 x="457.371297"
                 xlink:href="#m2fef73b4ae"
                 y="118.977432"
                 id="use424" />
            </g>
          </g>
          <g
             id="text_22">
            <!-- $\mathdefault{0.8}$ -->
            <g
               transform="translate(451.737783 131.740534)scale(0.0833 -0.0833)"
               id="g435">
              <use
                 transform="scale(0.996264)"
                 xlink:href="#CMR17-48"
                 id="use429" />
              <use
                 transform="translate(45.690477 0)scale(0.996264)"
                 xlink:href="#CMMI12-58"
                 id="use431" />
              <use
                 transform="translate(72.787654 0)scale(0.996264)"
                 xlink:href="#CMR17-56"
                 id="use433" />
            </g>
          </g>
        </g>
        <g
           id="xtick_17">
          <g
             id="line2d_34">
            <g
               id="g441">
              <use
                 style="stroke:#000000;stroke-width:0.8;"
                 x="497.294645"
                 xlink:href="#m2fef73b4ae"
                 y="118.977432"
                 id="use439" />
            </g>
          </g>
          <g
             id="text_23">
            <!-- $\mathdefault{1.0}$ -->
            <g
               transform="translate(491.661131 131.740534)scale(0.0833 -0.0833)"
               id="g450">
              <use
                 transform="scale(0.996264)"
                 xlink:href="#CMR17-49"
                 id="use444" />
              <use
                 transform="translate(45.690477 0)scale(0.996264)"
                 xlink:href="#CMMI12-58"
                 id="use446" />
              <use
                 transform="translate(72.787654 0)scale(0.996264)"
                 xlink:href="#CMR17-48"
                 id="use448" />
            </g>
          </g>
        </g>
        <g
           id="xtick_18">
          <g
             id="line2d_35">
            <g
               id="g456">
              <use
                 style="stroke:#000000;stroke-width:0.6;"
                 x="317.639581"
                 xlink:href="#m2ac7d4e99f"
                 y="118.977432"
                 id="use454" />
            </g>
          </g>
        </g>
        <g
           id="xtick_19">
          <g
             id="line2d_36">
            <g
               id="g462">
              <use
                 style="stroke:#000000;stroke-width:0.6;"
                 x="357.562928"
                 xlink:href="#m2ac7d4e99f"
                 y="118.977432"
                 id="use460" />
            </g>
          </g>
        </g>
        <g
           id="xtick_20">
          <g
             id="line2d_37">
            <g
               id="g468">
              <use
                 style="stroke:#000000;stroke-width:0.6;"
                 x="397.486276"
                 xlink:href="#m2ac7d4e99f"
                 y="118.977432"
                 id="use466" />
            </g>
          </g>
        </g>
        <g
           id="xtick_21">
          <g
             id="line2d_38">
            <g
               id="g474">
              <use
                 style="stroke:#000000;stroke-width:0.6;"
                 x="437.409624"
                 xlink:href="#m2ac7d4e99f"
                 y="118.977432"
                 id="use472" />
            </g>
          </g>
        </g>
        <g
           id="xtick_22">
          <g
             id="line2d_39">
            <g
               id="g480">
              <use
                 style="stroke:#000000;stroke-width:0.6;"
                 x="477.332971"
                 xlink:href="#m2ac7d4e99f"
                 y="118.977432"
                 id="use478" />
            </g>
          </g>
        </g>
        <g
           id="text_24">
          <!-- $t$ -->
          <g
             transform="translate(395.687464 144.272702)scale(0.1 -0.1)"
             id="g486">
            <use
               transform="scale(0.996264)"
               xlink:href="#CMMI12-116"
               id="use484" />
          </g>
        </g>
      </g>
      <g
         id="matplotlib.axis_4">
        <g
           id="ytick_6">
          <g
             id="line2d_40">
            <g
               id="g492">
              <use
                 style="stroke:#000000;stroke-width:0.8;"
                 x="297.677907"
                 xlink:href="#m4028ce3f2e"
                 y="118.977432"
                 id="use490" />
            </g>
          </g>
          <g
             id="text_25">
            <!-- $\mathdefault{0}$ -->
            <g
               transform="translate(286.269071 121.858983)scale(0.0833 -0.0833)"
               id="g497">
              <use
                 transform="scale(0.996264)"
                 xlink:href="#CMR17-48"
                 id="use495" />
            </g>
          </g>
        </g>
        <g
           id="ytick_7">
          <g
             id="line2d_41">
            <g
               id="g503">
              <use
                 style="stroke:#000000;stroke-width:0.8;"
                 x="297.677907"
                 xlink:href="#m4028ce3f2e"
                 y="92.653462"
                 id="use501" />
            </g>
          </g>
          <g
             id="text_26">
            <!-- $\mathdefault{200}$ -->
            <g
               transform="translate(277.451398 95.535013)scale(0.0833 -0.0833)"
               id="g512">
              <use
                 transform="scale(0.996264)"
                 xlink:href="#CMR17-50"
                 id="use506" />
              <use
                 transform="translate(45.690477 0)scale(0.996264)"
                 xlink:href="#CMR17-48"
                 id="use508" />
              <use
                 transform="translate(91.380954 0)scale(0.996264)"
                 xlink:href="#CMR17-48"
                 id="use510" />
            </g>
          </g>
        </g>
        <g
           id="ytick_8">
          <g
             id="line2d_42">
            <g
               id="g518">
              <use
                 style="stroke:#000000;stroke-width:0.8;"
                 x="297.677907"
                 xlink:href="#m4028ce3f2e"
                 y="66.329492"
                 id="use516" />
            </g>
          </g>
          <g
             id="text_27">
            <!-- $\mathdefault{400}$ -->
            <g
               transform="translate(277.451398 69.211043)scale(0.0833 -0.0833)"
               id="g527">
              <use
                 transform="scale(0.996264)"
                 xlink:href="#CMR17-52"
                 id="use521" />
              <use
                 transform="translate(45.690477 0)scale(0.996264)"
                 xlink:href="#CMR17-48"
                 id="use523" />
              <use
                 transform="translate(91.380954 0)scale(0.996264)"
                 xlink:href="#CMR17-48"
                 id="use525" />
            </g>
          </g>
        </g>
        <g
           id="ytick_9">
          <g
             id="line2d_43">
            <g
               id="g533">
              <use
                 style="stroke:#000000;stroke-width:0.8;"
                 x="297.677907"
                 xlink:href="#m4028ce3f2e"
                 y="40.005521"
                 id="use531" />
            </g>
          </g>
          <g
             id="text_28">
            <!-- $\mathdefault{600}$ -->
            <g
               transform="translate(277.451398 42.887072)scale(0.0833 -0.0833)"
               id="g542">
              <use
                 transform="scale(0.996264)"
                 xlink:href="#CMR17-54"
                 id="use536" />
              <use
                 transform="translate(45.690477 0)scale(0.996264)"
                 xlink:href="#CMR17-48"
                 id="use538" />
              <use
                 transform="translate(91.380954 0)scale(0.996264)"
                 xlink:href="#CMR17-48"
                 id="use540" />
            </g>
          </g>
        </g>
        <g
           id="ytick_10">
          <g
             id="line2d_44">
            <g
               id="g548">
              <use
                 style="stroke:#000000;stroke-width:0.8;"
                 x="297.677907"
                 xlink:href="#m4028ce3f2e"
                 y="13.681551"
                 id="use546" />
            </g>
          </g>
          <g
             id="text_29">
            <!-- $\mathdefault{800}$ -->
            <g
               transform="translate(277.451398 16.563102)scale(0.0833 -0.0833)"
               id="g557">
              <use
                 transform="scale(0.996264)"
                 xlink:href="#CMR17-56"
                 id="use551" />
              <use
                 transform="translate(45.690477 0)scale(0.996264)"
                 xlink:href="#CMR17-48"
                 id="use553" />
              <use
                 transform="translate(91.380954 0)scale(0.996264)"
                 xlink:href="#CMR17-48"
                 id="use555" />
            </g>
          </g>
        </g>
        <g
           id="text_30">
          <!-- $E_t[ {\bm u} ]$ -->
          <g
             transform="translate(270.960738 77.920288)rotate(-90)scale(0.1 -0.1)"
             id="g577">
            <defs
               id="defs565">
              <path
                 d="M 69.5 23.265625  C 69.59375 23.5625 69.90625 24.265625 69.90625 24.65625  C 69.90625 25.171875 69.5 25.671875 68.90625 25.671875  C 68.5 25.671875 68.296875 25.5625 68 25.265625  C 67.796875 25.171875 67.796875 24.96875 66.90625 22.953125  C 61 8.90625 56.703125 2.890625 40.703125 2.890625  L 26.09375 2.890625  C 24.703125 2.890625 24.5 2.890625 23.90625 3  C 22.796875 3.09375 22.703125 3.296875 22.703125 4.09375  C 22.703125 4.796875 22.90625 5.40625 23.09375 6.296875  L 30 34  L 39.90625 34  C 47.703125 34 48.296875 32.28125 48.296875 29.28125  C 48.296875 28.28125 48.296875 27.375 47.59375 24.359375  C 47.40625 23.96875 47.296875 23.5625 47.296875 23.265625  C 47.296875 22.5625 47.796875 22.25 48.40625 22.25  C 49.296875 22.25 49.40625 22.953125 49.796875 24.359375  L 55.5 47.4375  C 55.5 47.9375 55.09375 48.421875 54.5 48.421875  C 53.59375 48.421875 53.5 48.03125 53.09375 46.65625  C 51.09375 39.0625 49.09375 36.890625 40.203125 36.890625  L 30.703125 36.890625  L 36.90625 61.140625  C 37.796875 64.59375 38 64.890625 42.09375 64.890625  L 56.40625 64.890625  C 68.703125 64.890625 71.203125 61.640625 71.203125 54.140625  C 71.203125 54.046875 71.203125 51.28125 70.796875 48.03125  C 70.703125 47.640625 70.59375 47.046875 70.59375 46.84375  C 70.59375 46.0625 71.09375 45.765625 71.703125 45.765625  C 72.40625 45.765625 72.796875 46.15625 73 47.9375  L 75.09375 65.1875  C 75.09375 65.484375 75.296875 66.484375 75.296875 66.6875  C 75.296875 67.796875 74.40625 67.796875 72.59375 67.796875  L 23.796875 67.796875  C 21.90625 67.796875 20.90625 67.796875 20.90625 65.984375  C 20.90625 64.890625 21.59375 64.890625 23.296875 64.890625  C 29.5 64.890625 29.5 64.203125 29.5 63.109375  C 29.5 62.625 29.40625 62.234375 29.09375 61.140625  L 15.59375 7.40625  C 14.703125 3.890625 14.5 2.890625 7.5 2.890625  C 5.59375 2.890625 4.59375 2.890625 4.59375 1.09375  C 4.59375 0 5.203125 0 7.203125 0  L 57.40625 0  C 59.59375 0 59.703125 0.09375 60.40625 1.6875  z "
                 id="CMMI12-69" />
              <path
                 d="M 23.5 -25  L 23.5 -21.5  L 14.09375 -21.5  L 14.09375 71.484375  L 23.5 71.484375  L 23.5 75  L 10.59375 75  L 10.59375 -25  z "
                 id="CMR17-91" />
              <path
                 d="M 56.296875 31.5  C 57 34.296875 58.203125 39.09375 58.203125 39.796875  C 58.203125 41.890625 56.59375 44.1875 53.5 44.1875  C 51.90625 44.1875 48.203125 43.296875 46.90625 38.890625  C 46.5 37.5 42 19.390625 41.203125 16.09375  C 40.59375 13.796875 39.90625 10.890625 39.703125 9.09375  C 37.90625 6.6875 34 2.59375 28.90625 2.59375  C 23 2.59375 22.90625 7.59375 22.90625 9.890625  C 22.90625 16 26 23.796875 28.796875 31  C 29.796875 33.59375 30.09375 34.296875 30.09375 36  C 30.09375 41.796875 24.296875 45 18.796875 45  C 8.203125 45 3.203125 31.390625 3.203125 29.390625  C 3.203125 28 4.703125 28 5.59375 28  C 6.796875 28 7.5 28 7.90625 29.296875  C 11.203125 40.390625 16.59375 41.390625 18.203125 41.390625  C 18.90625 41.390625 19.90625 41.390625 19.90625 39.296875  C 19.90625 37 18.703125 34.1875 18.296875 33  C 14.09375 22.5 12.203125 16.890625 12.203125 12  C 12.203125 0.59375 22.203125 -1 28.09375 -1  C 31 -1 35.40625 -0.609375 40.796875 4.5  C 44 -0.40625 49.796875 -1 52.203125 -1  C 55.90625 -1 58.796875 1.09375 60.90625 4.6875  C 63.40625 8.6875 64.703125 14.09375 64.703125 14.59375  C 64.703125 16 63.203125 16 62.296875 16  C 61.203125 16 60.796875 16 60.296875 15.5  C 60.09375 15.296875 60.09375 15.09375 59.5 12.59375  C 57.5 4.796875 55.296875 2.59375 52.703125 2.59375  C 51.203125 2.59375 50.40625 3.59375 50.40625 6.296875  C 50.40625 8 50.796875 9.59375 51.796875 13.59375  C 52.5 16.390625 53.5 20.390625 54 22.59375  z "
                 id="CMMIB10-117" />
              <path
                 d="M 14.296875 75  L 1.40625 75  L 1.40625 71.484375  L 10.796875 71.484375  L 10.796875 -21.5  L 1.40625 -21.5  L 1.40625 -25  L 14.296875 -25  z "
                 id="CMR17-93" />
            </defs>
            <use
               transform="scale(0.996264)"
               xlink:href="#CMMI12-69"
               id="use567" />
            <use
               transform="translate(72.211218 -14.943915)scale(0.697382)"
               xlink:href="#CMMI12-116"
               id="use569" />
            <use
               transform="translate(97.367659 0)scale(0.996264)"
               xlink:href="#CMR17-91"
               id="use571" />
            <use
               transform="translate(122.238718 0)scale(0.996264)"
               xlink:href="#CMMIB10-117"
               id="use573" />
            <use
               transform="translate(190.085975 0)scale(0.996264)"
               xlink:href="#CMR17-93"
               id="use575" />
          </g>
        </g>
      </g>
      <g
         id="line2d_45">
        <path
           clip-path="url(#pbfd565473c)"
           d="M 297.677907 114.777758  L 301.061241 111.196768  L 304.444576 108.185614  L 307.82791 105.694634  L 311.211245 103.674246  L 314.594579 102.074958  L 317.977914 100.847364  L 321.361249 99.942026  L 324.744583 99.309091  L 328.127918 98.898404  L 331.511252 98.660672  L 334.894587 98.547965  L 338.277921 98.513652  L 341.661256 98.512349  L 345.04459 98.499917  L 348.427925 98.433904  L 351.811259 98.273742  L 355.194594 97.980642  L 358.577929 97.51751  L 361.961263 96.848885  L 365.344598 95.854964  L 368.727932 94.586988  L 372.111267 93.030371  L 375.494601 91.178545  L 378.877936 89.062627  L 382.26127 86.73814  L 385.644605 84.247766  L 389.02794 81.62464  L 392.411274 78.896115  L 395.794609 76.087721  L 399.177943 73.228122  L 402.561278 70.356522  L 405.944612 67.535765  L 409.327947 64.875692  L 412.711281 62.539392  L 416.094616 60.585579  L 419.47795 59.001429  L 422.861285 57.75174  L 426.24462 56.797934  L 429.627954 56.100868  L 433.011289 55.684443  L 436.394623 55.431739  L 439.777958 55.302316  L 443.161292 55.255441  L 446.544627 55.250115  L 449.927961 55.245098  L 453.311296 55.19893  L 456.69463 55.069961  L 460.077965 54.817261  L 463.4613 54.400936  L 466.844634 53.781912  L 470.227969 52.922101  L 473.611303 51.784566  L 476.994638 50.333309  L 480.377972 48.534422  L 483.761307 46.356942  L 487.144641 43.771461  L 490.527976 40.749924  L 493.911311 37.265549  L 497.294645 33.124383  "
           style="fill:none;stroke:#ffa600;stroke-linecap:square;stroke-width:1.5;"
           id="path581" />
      </g>
      <g
         id="line2d_46">
        <path
           clip-path="url(#pbfd565473c)"
           d="M 297.677907 113.272489  L 301.061241 108.693336  L 304.444576 105.083896  L 307.82791 102.300471  L 311.211245 100.211256  L 314.594579 98.695897  L 317.977914 97.645019  L 321.361249 96.959818  L 324.744583 96.551581  L 328.127918 96.34125  L 331.511252 96.258985  L 334.894587 96.243726  L 338.277921 96.24275  L 341.661256 96.211243  L 345.04459 96.111861  L 348.427925 95.914295  L 351.811259 95.594843  L 355.194594 95.135973  L 358.577929 94.52589  L 361.961263 93.758104  L 365.344598 92.778322  L 368.727932 91.64391  L 372.111267 90.362944  L 375.494601 88.94693  L 378.877936 87.410368  L 382.26127 85.770326  L 385.644605 84.045982  L 389.02794 82.258209  L 392.411274 80.42912  L 395.794609 78.581638  L 399.177943 76.739056  L 402.561278 74.924584  L 405.944612 73.160919  L 409.327947 71.469791  L 412.711281 69.871527  L 416.094616 68.384586  L 419.47795 67.025127  L 422.861285 65.806563  L 426.24462 64.7391  L 429.627954 63.829293  L 433.011289 63.132729  L 436.394623 62.592372  L 439.777958 62.199336  L 443.161292 61.939129  L 446.544627 61.791189  L 449.927961 61.728444  L 453.311296 61.716848  L 456.69463 61.714932  L 460.077965 61.673363  L 463.4613 61.534485  L 466.844634 61.231869  L 470.227969 60.689869  L 473.611303 59.823186  L 476.994638 58.536406  L 480.377972 56.72358  L 483.761307 54.267766  L 487.144641 51.040622  L 490.527976 46.901939  L 493.911311 41.699243  L 497.294645 34.818676  "
           style="fill:none;stroke:#000000;stroke-dasharray:5.55,2.4;stroke-dashoffset:0;stroke-opacity:0.6;stroke-width:1.5;"
           id="path584" />
      </g>
      <g
         id="patch_9">
        <path
           d="M 297.677907 118.977432  L 297.677907 13.681551  "
           style="fill:none;stroke:#000000;stroke-linecap:square;stroke-linejoin:miter;stroke-width:0.8;"
           id="path587" />
      </g>
      <g
         id="patch_10">
        <path
           d="M 497.294645 118.977432  L 497.294645 13.681551  "
           style="fill:none;stroke:#000000;stroke-linecap:square;stroke-linejoin:miter;stroke-width:0.8;"
           id="path590" />
      </g>
      <g
         id="patch_11">
        <path
           d="M 297.677907 118.977432  L 497.294645 118.977432  "
           style="fill:none;stroke:#000000;stroke-linecap:square;stroke-linejoin:miter;stroke-width:0.8;"
           id="path593" />
      </g>
      <g
         id="patch_12">
        <path
           d="M 297.677907 13.681551  L 497.294645 13.681551  "
           style="fill:none;stroke:#000000;stroke-linecap:square;stroke-linejoin:miter;stroke-width:0.8;"
           id="path596" />
      </g>
      <g
         id="text_31">
        <g
           id="patch_13">
          <path
             d="M 301.670241 27.754758  L 314.953802 27.754758  L 314.953802 17.792118  L 301.670241 17.792118  z "
             style="fill:#ffffff;opacity:0.7;"
             id="path599" />
        </g>
        <!-- (b) -->
        <g
           transform="translate(301.670241 25.264098)scale(0.1 -0.1)"
           id="g611">
          <defs
             id="defs603">
            <path
               d="M 15 69  L 3.09375 67.890625  L 3.09375 65.296875  C 9 65.296875 9.90625 64.703125 9.90625 60.046875  L 9.90625 -0.203125  L 11.703125 -0.203125  L 14.59375 6.953125  C 17.5 2.203125 21.796875 -1 27.59375 -1  C 37.59375 -1 47.703125 7.859375 47.703125 21.59375  C 47.703125 34.515625 38.703125 44 28.59375 44  C 22.40625 44 18 40.671875 15 36.734375  z M 15.203125 31.59375  C 15.203125 33.40625 15.203125 33.703125 16.59375 35.828125  C 20.5 41.890625 26.09375 42.390625 28 42.390625  C 31 42.390625 41.296875 40.78125 41.296875 21.6875  C 41.296875 1.703125 29.5 0.59375 27.09375 0.59375  C 24 0.59375 19.5 1.796875 16.296875 7.65625  C 15.203125 9.578125 15.203125 9.78125 15.203125 11.59375  z "
               id="CMR17-98" />
          </defs>
          <use
             transform="scale(0.996264)"
             xlink:href="#CMR17-40"
             id="use605" />
          <use
             transform="translate(35.280768 0)scale(0.996264)"
             xlink:href="#CMR17-98"
             id="use607" />
          <use
             transform="translate(86.176138 0)scale(0.996264)"
             xlink:href="#CMR17-41"
             id="use609" />
        </g>
      </g>
      <g
         id="text_32">
        <!-- OC control energy -->
        <g
           style="fill:#e84a5f;"
           transform="translate(323.628083 29.475933)scale(0.08 -0.08)"
           id="g657">
          <defs
             id="defs625">
            <path
               d="M 67.296875 33.84375  C 67.296875 54.5 52.59375 70 36 70  C 19 70 4.59375 54.296875 4.59375 33.84375  C 4.59375 13.390625 19.203125 -2 35.90625 -2  C 53 -2 67.296875 13.6875 67.296875 33.84375  z M 36 -0.203125  C 24.59375 -0.203125 12.203125 11.28125 12.203125 35.15625  C 12.203125 58.921875 25.796875 68.1875 35.90625 68.1875  C 46.5 68.1875 59.703125 58.625 59.703125 35.15625  C 59.703125 10.875 47 -0.203125 36 -0.203125  z "
               id="CMR17-79" />
            <path
               d="M 62.09375 67.984375  C 62.09375 69.796875 62 69.890625 61.40625 69.890625  C 61 69.890625 60.90625 69.796875 60.203125 68.59375  L 55.796875 60.140625  C 50.90625 66.390625 44.90625 70 37.203125 70  C 20.09375 70 4.59375 54.796875 4.59375 34.046875  C 4.59375 13.078125 20.09375 -2 37.296875 -2  C 52.59375 -2 62.09375 11.578125 62.09375 23.15625  C 62.09375 24.171875 62.09375 24.578125 61.203125 24.578125  C 60.40625 24.578125 60.40625 24.265625 60.296875 23.359375  C 59.5 9.25 49.5 0.59375 38.703125 0.59375  C 28.5 0.59375 12.203125 7.84375 12.203125 34.046875  C 12.203125 60.34375 28.796875 67.390625 38.5 67.390625  C 49.796875 67.390625 58 57.515625 59.90625 43.515625  C 60.09375 42.296875 60.09375 42.109375 61 42.109375  C 62.09375 42.109375 62.09375 42.296875 62.09375 44.125  z "
               id="CMR17-67" />
            <path
               d="M 34.90625 35  C 33 35 30.203125 35 30.203125 31.484375  C 30.203125 28.6875 32.5 27.890625 33.796875 27.890625  C 34.5 27.890625 37.40625 28.1875 37.40625 31.6875  C 37.40625 38.6875 30.59375 44 22.90625 44  C 12.296875 44 3.296875 34.390625 3.296875 21.546875  C 3.296875 8.140625 12.703125 -1 22.90625 -1  C 35.296875 -1 38.40625 10.5625 38.40625 11.671875  C 38.40625 12.078125 38.296875 12.375 37.59375 12.375  C 36.90625 12.375 36.796875 12.28125 36.40625 10.96875  C 33.796875 2.8125 28.09375 0.796875 23.796875 0.796875  C 17.40625 0.796875 9.703125 6.734375 9.703125 21.640625  C 9.703125 36.84375 17.09375 42.1875 23 42.1875  C 26.90625 42.1875 32.703125 40.34375 34.90625 35  z "
               id="CMR17-99" />
            <path
               d="M 43.09375 21.1875  C 43.09375 34 33.796875 44 22.90625 44  C 12 44 2.703125 34 2.703125 21.1875  C 2.703125 8.59375 12 -1 22.90625 -1  C 33.796875 -1 43.09375 8.59375 43.09375 21.1875  z M 22.90625 0.796875  C 18.203125 0.796875 14.203125 3.59375 11.90625 7.5  C 9.40625 12 9.09375 17.59375 9.09375 22  C 9.09375 26.1875 9.296875 31.390625 11.90625 35.890625  C 13.90625 39.1875 17.796875 42.390625 22.90625 42.390625  C 27.40625 42.390625 31.203125 39.890625 33.59375 36.390625  C 36.703125 31.6875 36.703125 25.09375 36.703125 22  C 36.703125 18.09375 36.5 12.09375 33.796875 7.296875  C 31 2.6875 26.703125 0.796875 22.90625 0.796875  z "
               id="CMR17-111" />
            <path
               d="M 41.5 30.53125  C 41.5 35.65625 40.5 44 28.703125 44  C 20.796875 44 16.703125 37.875 15.203125 33.84375  L 15.09375 33.84375  L 15.09375 44  L 3.296875 42.890625  L 3.296875 40.28125  C 9.203125 40.28125 10.09375 39.6875 10.09375 34.859375  L 10.09375 6.921875  C 10.09375 3.09375 9.703125 2.59375 3.296875 2.59375  L 3.296875 0  C 5.703125 0.1875 10.09375 0.1875 12.703125 0.1875  C 15.296875 0.1875 19.796875 0.1875 22.203125 0  L 22.203125 2.59375  C 15.796875 2.59375 15.40625 3 15.40625 6.921875  L 15.40625 26.21875  C 15.40625 35.453125 21 42.390625 28 42.390625  C 35.40625 42.390625 36.203125 35.765625 36.203125 30.9375  L 36.203125 6.921875  C 36.203125 3.09375 35.796875 2.59375 29.40625 2.59375  L 29.40625 0  C 31.796875 0.1875 36.203125 0.1875 38.796875 0.1875  C 41.40625 0.1875 45.90625 0.1875 48.296875 0  L 48.296875 2.59375  C 41.90625 2.59375 41.5 3 41.5 6.921875  z "
               id="CMR17-110" />
            <path
               d="M 15.09375 40.390625  L 29.09375 40.390625  L 29.09375 43  L 15.09375 43  L 15.09375 62  L 13.296875 62  C 13.09375 51.4375 9.59375 42.1875 1.09375 41.984375  L 1.09375 40.390625  L 9.796875 40.390625  L 9.796875 12.15625  C 9.796875 10.234375 9.796875 -1 21.40625 -1  C 27.296875 -1 30.703125 4.8125 30.703125 12.25  L 30.703125 17.984375  L 28.90625 17.984375  L 28.90625 12.34375  C 28.90625 5.421875 26.203125 0.796875 22 0.796875  C 19.09375 0.796875 15.09375 2.796875 15.09375 11.953125  z "
               id="CMR17-116" />
            <path
               d="M 15 23.703125  C 15 33.34375 19.09375 42.390625 26.59375 42.390625  C 27.296875 42.390625 28 42.296875 28.703125 41.984375  C 28.703125 41.984375 26.5 41.28125 26.5 38.671875  C 26.5 36.265625 28.40625 35.265625 29.90625 35.265625  C 31.09375 35.265625 33.296875 35.96875 33.296875 38.78125  C 33.296875 41.984375 30.09375 44 26.703125 44  C 19.09375 44 15.796875 36.5625 14.796875 33.046875  L 14.703125 33.046875  L 14.703125 44  L 3.09375 42.890625  L 3.09375 40.28125  C 9 40.28125 9.90625 39.6875 9.90625 34.859375  L 9.90625 6.921875  C 9.90625 3.09375 9.5 2.59375 3.09375 2.59375  L 3.09375 0  C 5.5 0.1875 10.09375 0.1875 12.703125 0.1875  C 15.59375 0.1875 20.703125 0.1875 23.40625 0  L 23.40625 2.59375  C 16.203125 2.59375 15 2.59375 15 7.109375  z "
               id="CMR17-114" />
            <path
               d="M 15.296875 69  L 3.40625 67.890625  L 3.40625 65.296875  C 9.296875 65.296875 10.203125 64.703125 10.203125 59.921875  L 10.203125 6.859375  C 10.203125 3.09375 9.796875 2.59375 3.40625 2.59375  L 3.40625 0  C 5.796875 0.1875 10.203125 0.1875 12.703125 0.1875  C 15.296875 0.1875 19.703125 0.1875 22.09375 0  L 22.09375 2.59375  C 15.703125 2.59375 15.296875 2.984375 15.296875 6.859375  z "
               id="CMR17-108" />
            <path
               d="M 38.09375 23.484375  C 38.5 23.890625 38.5 24.09375 38.5 25.09375  C 38.5 35.171875 33.09375 44 21.703125 44  C 11.09375 44 2.703125 33.984375 2.703125 21.78125  C 2.703125 8.65625 12.203125 -1 22.796875 -1  C 34 -1 38.40625 9.671875 38.40625 11.796875  C 38.40625 12.5 37.796875 12.5 37.59375 12.5  C 36.90625 12.5 36.796875 12.296875 36.40625 11.078125  C 34.203125 4.21875 28.703125 0.796875 23.5 0.796875  C 19.203125 0.796875 14.90625 3.21875 12.203125 7.65625  C 9.09375 12.796875 9.09375 18.75 9.09375 23.484375  z M 9.203125 25  C 9.90625 39.234375 17.59375 42.390625 21.59375 42.390625  C 28.40625 42.390625 33 36.0625 33.09375 25  z "
               id="CMR17-101" />
            <path
               d="M 11.09375 18.203125  C 13 16.6875 16.296875 15 20.296875 15  C 28.203125 15 35 21.234375 35 29.609375  C 35 32.234375 34.203125 36.265625 31.203125 39.390625  C 34 42.390625 38.09375 43.390625 40.40625 43.390625  C 40.796875 43.390625 41.40625 43.390625 41.90625 43.09375  C 41.5 42.984375 40.59375 42.59375 40.59375 40.984375  C 40.59375 39.6875 41.5 38.796875 42.796875 38.796875  C 44.296875 38.796875 45.09375 39.796875 45.09375 41.09375  C 45.09375 42.984375 43.59375 45 40.40625 45  C 36.40625 45 32.90625 43.09375 30.09375 40.484375  C 27.09375 43.1875 23.5 44.1875 20.296875 44.1875  C 12.40625 44.1875 5.59375 37.984375 5.59375 29.609375  C 5.59375 23.859375 8.90625 20.21875 9.90625 19.21875  C 6.90625 15.6875 6.90625 11.59375 6.90625 11.09375  C 6.90625 8.5 7.90625 4.6875 11.296875 2.59375  C 6.09375 1.28125 2 -2.875 2 -8.078125  C 2 -15.5625 11.5 -21 22.90625 -21  C 33.90625 -21 43.796875 -15.765625 43.796875 -7.96875  C 43.796875 6 29 6 21.296875 6  C 19 6 14.90625 6 14.40625 6.09375  C 11.296875 6.59375 9.203125 9.390625 9.203125 12.890625  C 9.203125 13.796875 9.203125 16 11.09375 18.203125  z M 20.296875 16.6875  C 11.5 16.6875 11.5 27.59375 11.5 29.609375  C 11.5 31.625 11.5 42.484375 20.296875 42.484375  C 29.09375 42.484375 29.09375 31.625 29.09375 29.609375  C 29.09375 27.59375 29.09375 16.6875 20.296875 16.6875  z M 22.90625 -19.3125  C 12.90625 -19.3125 6 -13.796875 6 -8.078125  C 6 -4.859375 7.703125 -1.84375 9.90625 -0.171875  C 12.40625 1.59375 13.40625 1.59375 20.203125 1.59375  C 28.40625 1.59375 39.796875 1.59375 39.796875 -8.078125  C 39.796875 -13.796875 32.90625 -19.3125 22.90625 -19.3125  z "
               id="CMR17-103" />
            <path
               d="M 39 34.109375  C 41.5 40.296875 46 40.390625 47.40625 40.390625  L 47.40625 43  C 45.5 42.890625 43 42.796875 41.09375 42.796875  C 39 42.796875 35.703125 42.796875 33.703125 43  L 33.703125 40.390625  C 37.5 40.09375 37.59375 37.25 37.59375 36.4375  C 37.59375 35.4375 37.40625 34.921875 36.90625 33.71875  L 26 6.390625  L 14.09375 35.9375  C 13.59375 37.15625 13.59375 37.859375 13.59375 37.96875  C 13.59375 40.1875 15.90625 40.390625 18.296875 40.390625  L 18.296875 43  C 15.90625 42.796875 11.59375 42.796875 9.09375 42.796875  C 6.40625 42.796875 3.203125 42.796875 1 43  L 1 40.390625  C 6.40625 40.390625 7 39.890625 8.296875 36.640625  L 23.203125 -0.484375  C 18.703125 -12.421875 16.09375 -19.40625 9.796875 -19.40625  C 8.703125 -19.40625 6.203125 -19.109375 4.40625 -17.28125  C 6.703125 -17.078125 7.703125 -15.65625 7.703125 -13.9375  C 7.703125 -12.21875 6.5 -10.703125 4.5 -10.703125  C 2.296875 -10.703125 1.203125 -12.21875 1.203125 -14.046875  C 1.203125 -18.09375 5.296875 -21 9.796875 -21  C 15.59375 -21 19.203125 -15.359375 21.203125 -10.296875  z "
               id="CMR17-121" />
          </defs>
          <use
             transform="scale(0.996264)"
             xlink:href="#CMR17-79"
             id="use627" />
          <use
             transform="translate(71.714788 0)scale(0.996264)"
             xlink:href="#CMR17-67"
             id="use629" />
          <use
             transform="translate(168.300635 0)scale(0.996264)"
             xlink:href="#CMR17-99"
             id="use631" />
          <use
             transform="translate(208.786296 0)scale(0.996264)"
             xlink:href="#CMR17-111"
             id="use633" />
          <use
             transform="translate(254.476773 0)scale(0.996264)"
             xlink:href="#CMR17-110"
             id="use635" />
          <use
             transform="translate(302.769689 0)scale(0.996264)"
             xlink:href="#CMR17-116"
             id="use637" />
          <use
             transform="translate(338.050457 0)scale(0.996264)"
             xlink:href="#CMR17-114"
             id="use639" />
          <use
             transform="translate(373.331224 0)scale(0.996264)"
             xlink:href="#CMR17-111"
             id="use641" />
          <use
             transform="translate(419.021701 0)scale(0.996264)"
             xlink:href="#CMR17-108"
             id="use643" />
          <use
             transform="translate(473.968726 0)scale(0.996264)"
             xlink:href="#CMR17-101"
             id="use645" />
          <use
             transform="translate(514.454387 0)scale(0.996264)"
             xlink:href="#CMR17-110"
             id="use647" />
          <use
             transform="translate(565.349757 0)scale(0.996264)"
             xlink:href="#CMR17-101"
             id="use649" />
          <use
             transform="translate(605.835417 0)scale(0.996264)"
             xlink:href="#CMR17-114"
             id="use651" />
          <use
             transform="translate(641.116185 0)scale(0.996264)"
             xlink:href="#CMR17-103"
             id="use653" />
          <use
             transform="translate(686.806662 0)scale(0.996264)"
             xlink:href="#CMR17-121"
             id="use655" />
        </g>
      </g>
      <g
         id="LineCollection_1">
        <path
           clip-path="url(#pbfd565473c)"
           d="M 297.677907 34.818676  L 497.294645 34.818676  "
           style="fill:none;stroke:#e84a5f;stroke-dasharray:5.55,2.4;stroke-dashoffset:0;stroke-width:1.5;"
           id="path660" />
      </g>
    </g>
  </g>
  <defs
     id="defs671">
    <clipPath
       id="p38b3bc304c">
      <rect
         height="105.295881"
         width="199.616738"
         x="47.438505"
         y="13.681551"
         id="rect665" />
    </clipPath>
    <clipPath
       id="pbfd565473c">
      <rect
         height="105.295881"
         width="199.616738"
         x="297.677907"
         y="13.681551"
         id="rect668" />
    </clipPath>
  </defs>
  <circle
     style="fill:#2ca02c;fill-opacity:1;fill-rule:nonzero;stroke:#000000;stroke-width:0.46092823;stroke-linecap:butt;stroke-linejoin:round;stroke-miterlimit:4;stroke-dasharray:none;stroke-dashoffset:0;stroke-opacity:0.6"
     id="path1486"
     cx="81.398613"
     cy="96.451042"
     r="5.0618553"
     inkscape:export-xdpi="479.23999"
     inkscape:export-ydpi="479.23999" />
  <circle
     style="fill:#1f77b4;fill-opacity:1;fill-rule:nonzero;stroke:#000000;stroke-width:0.46092823;stroke-linecap:butt;stroke-linejoin:round;stroke-miterlimit:4;stroke-dasharray:none;stroke-dashoffset:0;stroke-opacity:0.6"
     id="path1486-3"
     cx="97.990242"
     cy="79.85939"
     r="5.0618553"
     inkscape:export-xdpi="479.23999"
     inkscape:export-ydpi="479.23999" />
  <circle
     style="fill:#ff7f0e;fill-opacity:1;fill-rule:nonzero;stroke:#000000;stroke-width:0.46092823;stroke-linecap:butt;stroke-linejoin:round;stroke-miterlimit:4;stroke-dasharray:none;stroke-dashoffset:0;stroke-opacity:0.6"
     id="path1486-3-6"
     cx="107.27029"
     cy="99.825607"
     r="5.0618553"
     inkscape:export-xdpi="479.23999"
     inkscape:export-ydpi="479.23999" />
  <path
     style="fill:none;stroke:#000000;stroke-width:0.54075003;stroke-linecap:butt;stroke-linejoin:miter;stroke-miterlimit:4;stroke-dasharray:none;stroke-opacity:1;marker-end:url(#Arrow2Mend)"
     d="m 104.51012,78.119415 c 14.66659,0.72868 8.06227,16.400463 8.06227,16.400463"
     id="path1518"
     inkscape:connector-curvature="0"
     inkscape:export-xdpi="479.23999"
     inkscape:export-ydpi="479.23999" />
  <path
     style="fill:none;stroke:#000000;stroke-width:0.5447244px;stroke-linecap:butt;stroke-linejoin:miter;stroke-opacity:1;marker-end:url(#Arrow2Mend-7)"
     d="m 102.47976,105.7416 c -9.027162,11.96836 -17.443092,-3.27814 -17.443092,-3.27814"
     id="path1518-3"
     inkscape:connector-curvature="0"
     inkscape:export-xdpi="479.23999"
     inkscape:export-ydpi="479.23999" />
  <path
     style="fill:none;stroke:#000000;stroke-width:0.5447244px;stroke-linecap:butt;stroke-linejoin:miter;stroke-opacity:1;marker-end:url(#Arrow2Mend-7-5)"
     d="M 77.535608,91.15122 C 72.695128,76.963162 90.037448,78.553134 90.037448,78.553134"
     id="path1518-3-2"
     inkscape:connector-curvature="0"
     inkscape:export-xdpi="479.23999"
     inkscape:export-ydpi="479.23999" />
</svg>
