<?xml version="1.0" encoding="utf-8" standalone="no"?>
<!DOCTYPE svg PUBLIC "-//W3C//DTD SVG 1.1//EN"
  "http://www.w3.org/Graphics/SVG/1.1/DTD/svg11.dtd">
<!-- Created with matplotlib (https://matplotlib.org/) -->
<svg height="157.00988pt" version="1.1" viewBox="0 0 508.094645 157.00988" width="508.094645pt" xmlns="http://www.w3.org/2000/svg" xmlns:xlink="http://www.w3.org/1999/xlink">
 <metadata>
  <rdf:RDF xmlns:cc="http://creativecommons.org/ns#" xmlns:dc="http://purl.org/dc/elements/1.1/" xmlns:rdf="http://www.w3.org/1999/02/22-rdf-syntax-ns#">
   <cc:Work>
    <dc:type rdf:resource="http://purl.org/dc/dcmitype/StillImage"/>
    <dc:date>2021-07-21T15:47:18.320081</dc:date>
    <dc:format>image/svg+xml</dc:format>
    <dc:creator>
     <cc:Agent>
      <dc:title>Matplotlib v3.3.4, https://matplotlib.org/</dc:title>
     </cc:Agent>
    </dc:creator>
   </cc:Work>
  </rdf:RDF>
 </metadata>
 <defs>
  <style type="text/css">*{stroke-linecap:butt;stroke-linejoin:round;}</style>
 </defs>
 <g id="figure_1">
  <g id="patch_1">
   <path d="M 0 157.00988 
L 508.094645 157.00988 
L 508.094645 0 
L 0 0 
z
" style="fill:#ffffff;"/>
  </g>
  <g id="axes_1">
   <g id="patch_2">
    <path d="M 47.438505 118.977432 
L 247.055244 118.977432 
L 247.055244 13.681551 
L 47.438505 13.681551 
z
" style="fill:#ffffff;"/>
   </g>
   <g id="matplotlib.axis_1">
    <g id="xtick_1">
     <g id="line2d_1">
      <defs>
       <path d="M 0 0 
L 0 3.5 
" id="mbad47b01c5" style="stroke:#000000;stroke-width:0.8;"/>
      </defs>
      <g>
       <use style="stroke:#000000;stroke-width:0.8;" x="47.438505" xlink:href="#mbad47b01c5" y="118.977432"/>
      </g>
     </g>
     <g id="text_1">
      <!-- $\mathdefault{0.0}$ -->
      <g transform="translate(41.804991 131.740534)scale(0.0833 -0.0833)">
       <defs>
        <path d="M 42 31.84375 
C 42 37.96875 41.90625 48.421875 37.703125 56.453125 
C 34 63.484375 28.09375 66 22.90625 66 
C 18.09375 66 12 63.78125 8.203125 56.5625 
C 4.203125 49.015625 3.796875 39.671875 3.796875 31.84375 
C 3.796875 26.109375 3.90625 17.375 7 9.734375 
C 11.296875 -0.609375 19 -2 22.90625 -2 
C 27.5 -2 34.5 -0.109375 38.59375 9.4375 
C 41.59375 16.375 42 24.5 42 31.84375 
z
M 22.90625 -0.40625 
C 16.5 -0.40625 12.703125 5.125 11.296875 12.75 
C 10.203125 18.6875 10.203125 27.328125 10.203125 32.953125 
C 10.203125 40.6875 10.203125 47.109375 11.5 53.234375 
C 13.40625 61.78125 19 64.390625 22.90625 64.390625 
C 27 64.390625 32.296875 61.671875 34.203125 53.4375 
C 35.5 47.71875 35.59375 40.984375 35.59375 32.953125 
C 35.59375 26.421875 35.59375 18.375 34.40625 12.453125 
C 32.296875 1.5 26.40625 -0.40625 22.90625 -0.40625 
z
" id="CMR17-48"/>
        <path d="M 18.40625 4.796875 
C 18.40625 7.6875 16 9.6875 13.59375 9.6875 
C 10.703125 9.6875 8.703125 7.296875 8.703125 4.890625 
C 8.703125 2 11.09375 0 13.5 0 
C 16.40625 0 18.40625 2.390625 18.40625 4.796875 
z
" id="CMMI12-58"/>
       </defs>
       <use transform="scale(0.996264)" xlink:href="#CMR17-48"/>
       <use transform="translate(45.690477 0)scale(0.996264)" xlink:href="#CMMI12-58"/>
       <use transform="translate(72.787654 0)scale(0.996264)" xlink:href="#CMR17-48"/>
      </g>
     </g>
    </g>
    <g id="xtick_2">
     <g id="line2d_2">
      <g>
       <use style="stroke:#000000;stroke-width:0.8;" x="87.361853" xlink:href="#mbad47b01c5" y="118.977432"/>
      </g>
     </g>
     <g id="text_2">
      <!-- $\mathdefault{0.2}$ -->
      <g transform="translate(81.728338 131.740534)scale(0.0833 -0.0833)">
       <defs>
        <path d="M 41.703125 15.46875 
L 39.90625 15.46875 
C 38.90625 8.390625 38.09375 7.1875 37.703125 6.59375 
C 37.203125 5.796875 30 5.796875 28.59375 5.796875 
L 9.40625 5.796875 
C 13 9.6875 20 16.765625 28.5 24.9375 
C 34.59375 30.71875 41.703125 37.5 41.703125 47.390625 
C 41.703125 59.1875 32.296875 66 21.796875 66 
C 10.796875 66 4.09375 56.296875 4.09375 47.296875 
C 4.09375 43.390625 7 42.890625 8.203125 42.890625 
C 9.203125 42.890625 12.203125 43.484375 12.203125 46.984375 
C 12.203125 50.09375 9.59375 51 8.203125 51 
C 7.59375 51 7 50.890625 6.59375 50.6875 
C 8.5 59.1875 14.296875 63.390625 20.40625 63.390625 
C 29.09375 63.390625 34.796875 56.5 34.796875 47.390625 
C 34.796875 38.703125 29.703125 31.21875 24 24.734375 
L 4.09375 2.296875 
L 4.09375 0 
L 39.296875 0 
z
" id="CMR17-50"/>
       </defs>
       <use transform="scale(0.996264)" xlink:href="#CMR17-48"/>
       <use transform="translate(45.690477 0)scale(0.996264)" xlink:href="#CMMI12-58"/>
       <use transform="translate(72.787654 0)scale(0.996264)" xlink:href="#CMR17-50"/>
      </g>
     </g>
    </g>
    <g id="xtick_3">
     <g id="line2d_3">
      <g>
       <use style="stroke:#000000;stroke-width:0.8;" x="127.285201" xlink:href="#mbad47b01c5" y="118.977432"/>
      </g>
     </g>
     <g id="text_3">
      <!-- $\mathdefault{0.4}$ -->
      <g transform="translate(121.651686 131.740534)scale(0.0833 -0.0833)">
       <defs>
        <path d="M 33.59375 64.796875 
C 33.59375 66.890625 33.5 67 31.703125 67 
L 2 19.59375 
L 2 17 
L 27.796875 17 
L 27.796875 7.1875 
C 27.796875 3.59375 27.59375 2.59375 20.59375 2.59375 
L 18.703125 2.59375 
L 18.703125 0 
C 21.90625 0.1875 27.296875 0.1875 30.703125 0.1875 
C 34.09375 0.1875 39.5 0.1875 42.703125 0 
L 42.703125 2.59375 
L 40.796875 2.59375 
C 33.796875 2.59375 33.59375 3.59375 33.59375 7.1875 
L 33.59375 17 
L 43.796875 17 
L 43.796875 19.59375 
L 33.59375 19.59375 
z
M 28.09375 58.171875 
L 28.09375 19.59375 
L 4 19.59375 
z
" id="CMR17-52"/>
       </defs>
       <use transform="scale(0.996264)" xlink:href="#CMR17-48"/>
       <use transform="translate(45.690477 0)scale(0.996264)" xlink:href="#CMMI12-58"/>
       <use transform="translate(72.787654 0)scale(0.996264)" xlink:href="#CMR17-52"/>
      </g>
     </g>
    </g>
    <g id="xtick_4">
     <g id="line2d_4">
      <g>
       <use style="stroke:#000000;stroke-width:0.8;" x="167.208548" xlink:href="#mbad47b01c5" y="118.977432"/>
      </g>
     </g>
     <g id="text_4">
      <!-- $\mathdefault{0.6}$ -->
      <g transform="translate(161.575034 131.740534)scale(0.0833 -0.0833)">
       <defs>
        <path d="M 10.59375 34.34375 
C 10.59375 58 21.796875 63.6875 28.296875 63.6875 
C 30.40625 63.6875 35.5 63.265625 37.5 59.09375 
C 35.90625 59.09375 32.90625 59.09375 32.90625 55.59375 
C 32.90625 52.890625 35.09375 52 36.5 52 
C 37.40625 52 40.09375 52.390625 40.09375 55.796875 
C 40.09375 62.296875 35.09375 66 28.203125 66 
C 16.296875 66 3.796875 53.296875 3.796875 31.421875 
C 3.796875 4.015625 15.09375 -2 23.09375 -2 
C 32.796875 -2 42 6.734375 42 20.234375 
C 42 32.828125 33.90625 42 23.703125 42 
C 17.59375 42 13.09375 37.96875 10.59375 30.921875 
z
M 23.09375 0.390625 
C 10.796875 0.390625 10.796875 18.9375 10.796875 22.65625 
C 10.796875 29.90625 14.203125 40.390625 23.5 40.390625 
C 25.203125 40.390625 30.09375 40.390625 33.40625 33.4375 
C 35.203125 29.515625 35.203125 25.375 35.203125 20.34375 
C 35.203125 14.90625 35.203125 10.875 33.09375 6.84375 
C 30.90625 2.703125 27.703125 0.390625 23.09375 0.390625 
z
" id="CMR17-54"/>
       </defs>
       <use transform="scale(0.996264)" xlink:href="#CMR17-48"/>
       <use transform="translate(45.690477 0)scale(0.996264)" xlink:href="#CMMI12-58"/>
       <use transform="translate(72.787654 0)scale(0.996264)" xlink:href="#CMR17-54"/>
      </g>
     </g>
    </g>
    <g id="xtick_5">
     <g id="line2d_5">
      <g>
       <use style="stroke:#000000;stroke-width:0.8;" x="207.131896" xlink:href="#mbad47b01c5" y="118.977432"/>
      </g>
     </g>
     <g id="text_5">
      <!-- $\mathdefault{0.8}$ -->
      <g transform="translate(201.498381 131.740534)scale(0.0833 -0.0833)">
       <defs>
        <path d="M 27.203125 35.765625 
C 33.5 38.96875 39.90625 43.796875 39.90625 51.53125 
C 39.90625 60.6875 31.09375 66 23 66 
C 13.90625 66 5.90625 59.375 5.90625 50.234375 
C 5.90625 47.71875 6.5 43.390625 10.40625 39.578125 
C 11.40625 38.578125 15.59375 35.5625 18.296875 33.65625 
C 13.796875 31.34375 3.296875 25.8125 3.296875 14.765625 
C 3.296875 4.40625 13.09375 -2 22.796875 -2 
C 33.5 -2 42.5 5.71875 42.5 15.96875 
C 42.5 25.109375 36.40625 29.328125 32.40625 32.046875 
z
M 14.09375 44.609375 
C 13.296875 45.109375 9.296875 48.21875 9.296875 52.9375 
C 9.296875 59.078125 15.59375 63.6875 22.796875 63.6875 
C 30.703125 63.6875 36.5 58.0625 36.5 51.53125 
C 36.5 42.1875 26.09375 36.859375 25.59375 36.859375 
C 25.5 36.859375 25.40625 36.859375 24.59375 37.46875 
z
M 32.5 24 
C 34 22.90625 38.796875 19.578125 38.796875 13.453125 
C 38.796875 6.015625 31.40625 0.390625 23 0.390625 
C 13.90625 0.390625 7 6.921875 7 14.859375 
C 7 22.796875 13.09375 29.4375 20 32.546875 
z
" id="CMR17-56"/>
       </defs>
       <use transform="scale(0.996264)" xlink:href="#CMR17-48"/>
       <use transform="translate(45.690477 0)scale(0.996264)" xlink:href="#CMMI12-58"/>
       <use transform="translate(72.787654 0)scale(0.996264)" xlink:href="#CMR17-56"/>
      </g>
     </g>
    </g>
    <g id="xtick_6">
     <g id="line2d_6">
      <g>
       <use style="stroke:#000000;stroke-width:0.8;" x="247.055244" xlink:href="#mbad47b01c5" y="118.977432"/>
      </g>
     </g>
     <g id="text_6">
      <!-- $\mathdefault{1.0}$ -->
      <g transform="translate(241.421729 131.740534)scale(0.0833 -0.0833)">
       <defs>
        <path d="M 26.59375 63.796875 
C 26.59375 65.890625 26.5 66 25.09375 66 
C 21.203125 61.359375 15.296875 59.890625 9.703125 59.6875 
C 9.40625 59.6875 8.90625 59.6875 8.796875 59.5 
C 8.703125 59.296875 8.703125 59.09375 8.703125 57 
C 11.796875 57 17 57.59375 21 59.984375 
L 21 7.296875 
C 21 3.796875 20.796875 2.59375 12.203125 2.59375 
L 9.203125 2.59375 
L 9.203125 0 
C 14 0.09375 19 0.1875 23.796875 0.1875 
C 28.59375 0.1875 33.59375 0.09375 38.40625 0 
L 38.40625 2.59375 
L 35.40625 2.59375 
C 26.796875 2.59375 26.59375 3.6875 26.59375 7.296875 
z
" id="CMR17-49"/>
       </defs>
       <use transform="scale(0.996264)" xlink:href="#CMR17-49"/>
       <use transform="translate(45.690477 0)scale(0.996264)" xlink:href="#CMMI12-58"/>
       <use transform="translate(72.787654 0)scale(0.996264)" xlink:href="#CMR17-48"/>
      </g>
     </g>
    </g>
    <g id="xtick_7">
     <g id="line2d_7">
      <defs>
       <path d="M 0 0 
L 0 2 
" id="m58cf8d97e4" style="stroke:#000000;stroke-width:0.6;"/>
      </defs>
      <g>
       <use style="stroke:#000000;stroke-width:0.6;" x="67.400179" xlink:href="#m58cf8d97e4" y="118.977432"/>
      </g>
     </g>
    </g>
    <g id="xtick_8">
     <g id="line2d_8">
      <g>
       <use style="stroke:#000000;stroke-width:0.6;" x="107.323527" xlink:href="#m58cf8d97e4" y="118.977432"/>
      </g>
     </g>
    </g>
    <g id="xtick_9">
     <g id="line2d_9">
      <g>
       <use style="stroke:#000000;stroke-width:0.6;" x="147.246874" xlink:href="#m58cf8d97e4" y="118.977432"/>
      </g>
     </g>
    </g>
    <g id="xtick_10">
     <g id="line2d_10">
      <g>
       <use style="stroke:#000000;stroke-width:0.6;" x="187.170222" xlink:href="#m58cf8d97e4" y="118.977432"/>
      </g>
     </g>
    </g>
    <g id="xtick_11">
     <g id="line2d_11">
      <g>
       <use style="stroke:#000000;stroke-width:0.6;" x="227.09357" xlink:href="#m58cf8d97e4" y="118.977432"/>
      </g>
     </g>
    </g>
    <g id="text_7">
     <!-- $t$ -->
     <g transform="translate(145.448063 144.272702)scale(0.1 -0.1)">
      <defs>
       <path d="M 20.09375 40.09375 
L 29.296875 40.09375 
C 31.203125 40.09375 32.203125 40.09375 32.203125 41.890625 
C 32.203125 43 31.59375 43 29.59375 43 
L 20.796875 43 
L 24.5 57.25 
C 24.90625 58.625 24.90625 58.8125 24.90625 59.5 
C 24.90625 61.09375 23.59375 62 22.296875 62 
C 21.5 62 19.203125 61.6875 18.40625 58.53125 
L 14.5 43 
L 5.09375 43 
C 3.09375 43 2.203125 43 2.203125 41.09375 
C 2.203125 40.09375 2.90625 40.09375 4.796875 40.09375 
L 13.703125 40.09375 
L 7.09375 13.765625 
C 6.296875 10.265625 6 9.265625 6 7.96875 
C 6 3.28125 9.296875 -1 14.90625 -1 
C 25 -1 30.40625 13.5625 30.40625 14.265625 
C 30.40625 14.859375 30 15.15625 29.40625 15.15625 
C 29.203125 15.15625 28.796875 15.15625 28.59375 14.75 
C 28.5 14.65625 28.40625 14.5625 27.703125 12.96875 
C 25.59375 7.96875 21 1 15.203125 1 
C 12.203125 1 12 3.484375 12 5.6875 
C 12 5.78125 12 7.671875 12.296875 8.875 
z
" id="CMMI12-116"/>
      </defs>
      <use transform="scale(0.996264)" xlink:href="#CMMI12-116"/>
     </g>
    </g>
   </g>
   <g id="matplotlib.axis_2">
    <g id="ytick_1">
     <g id="line2d_12">
      <defs>
       <path d="M 0 0 
L -3.5 0 
" id="m997476b047" style="stroke:#000000;stroke-width:0.8;"/>
      </defs>
      <g>
       <use style="stroke:#000000;stroke-width:0.8;" x="47.438505" xlink:href="#m997476b047" y="118.977432"/>
      </g>
     </g>
     <g id="text_8">
      <!-- $\mathdefault{−10}$ -->
      <g transform="translate(24.76264 121.858983)scale(0.0833 -0.0833)">
       <defs>
        <path d="M 65.90625 23 
C 67.59375 23 69.40625 23 69.40625 25 
C 69.40625 27 67.59375 27 65.90625 27 
L 11.796875 27 
C 10.09375 27 8.296875 27 8.296875 25 
C 8.296875 23 10.09375 23 11.796875 23 
z
" id="CMSY10-0"/>
       </defs>
       <use transform="scale(0.996264)" xlink:href="#CMSY10-0"/>
       <use transform="translate(77.487468 0)scale(0.996264)" xlink:href="#CMR17-49"/>
       <use transform="translate(123.177945 0)scale(0.996264)" xlink:href="#CMR17-48"/>
      </g>
     </g>
    </g>
    <g id="ytick_2">
     <g id="line2d_13">
      <g>
       <use style="stroke:#000000;stroke-width:0.8;" x="47.438505" xlink:href="#m997476b047" y="92.653462"/>
      </g>
     </g>
     <g id="text_9">
      <!-- $\mathdefault{−5}$ -->
      <g transform="translate(29.171476 95.535013)scale(0.0833 -0.0833)">
       <defs>
        <path d="M 11.40625 58.59375 
C 12.40625 58.1875 16.5 56.890625 20.703125 56.890625 
C 30 56.890625 35.09375 61.890625 38 64.6875 
C 38 65.484375 38 66 37.40625 66 
C 37.296875 66 37.09375 66 36.296875 65.59375 
C 32.796875 64.09375 28.703125 63 23.703125 63 
C 20.703125 63 16.203125 63.359375 11.296875 65.484375 
C 10.203125 66 10 66 9.90625 66 
C 9.40625 66 9.296875 65.890625 9.296875 63.90625 
L 9.296875 34.859375 
C 9.296875 33.015625 9.296875 32.5 10.296875 32.5 
C 10.796875 32.5 11 32.703125 11.5 33.421875 
C 14.703125 38.046875 19.09375 40 24.09375 40 
C 27.59375 40 35.09375 37.734375 35.09375 20.203125 
C 35.09375 16.984375 35.09375 11.1875 32.09375 6.59375 
C 29.59375 2.484375 25.703125 0.390625 21.40625 0.390625 
C 14.796875 0.390625 8.09375 4.984375 6.296875 12.6875 
C 6.703125 12.59375 7.5 12.390625 7.90625 12.390625 
C 9.203125 12.390625 11.703125 13.09375 11.703125 16.1875 
C 11.703125 18.890625 9.796875 20 7.90625 20 
C 5.59375 20 4.09375 18.59375 4.09375 15.796875 
C 4.09375 7.09375 11 -2 21.59375 -2 
C 31.90625 -2 41.703125 6.890625 41.703125 19.796875 
C 41.703125 32.09375 33.90625 41.59375 24.203125 41.59375 
C 19.09375 41.59375 14.796875 39.6875 11.40625 36 
z
" id="CMR17-53"/>
       </defs>
       <use transform="scale(0.996264)" xlink:href="#CMSY10-0"/>
       <use transform="translate(77.487468 0)scale(0.996264)" xlink:href="#CMR17-53"/>
      </g>
     </g>
    </g>
    <g id="ytick_3">
     <g id="line2d_14">
      <g>
       <use style="stroke:#000000;stroke-width:0.8;" x="47.438505" xlink:href="#m997476b047" y="66.329492"/>
      </g>
     </g>
     <g id="text_10">
      <!-- $\mathdefault{0}$ -->
      <g transform="translate(36.029669 69.211043)scale(0.0833 -0.0833)">
       <use transform="scale(0.996264)" xlink:href="#CMR17-48"/>
      </g>
     </g>
    </g>
    <g id="ytick_4">
     <g id="line2d_15">
      <g>
       <use style="stroke:#000000;stroke-width:0.8;" x="47.438505" xlink:href="#m997476b047" y="40.005521"/>
      </g>
     </g>
     <g id="text_11">
      <!-- $\mathdefault{5}$ -->
      <g transform="translate(36.029669 42.887072)scale(0.0833 -0.0833)">
       <use transform="scale(0.996264)" xlink:href="#CMR17-53"/>
      </g>
     </g>
    </g>
    <g id="ytick_5">
     <g id="line2d_16">
      <g>
       <use style="stroke:#000000;stroke-width:0.8;" x="47.438505" xlink:href="#m997476b047" y="13.681551"/>
      </g>
     </g>
     <g id="text_12">
      <!-- $\mathdefault{10}$ -->
      <g transform="translate(31.620833 16.563102)scale(0.0833 -0.0833)">
       <use transform="scale(0.996264)" xlink:href="#CMR17-49"/>
       <use transform="translate(45.690477 0)scale(0.996264)" xlink:href="#CMR17-48"/>
      </g>
     </g>
    </g>
    <g id="text_13">
     <!-- $x_i(t)$ -->
     <g transform="translate(18.27198 76.508058)rotate(-90)scale(0.1 -0.1)">
      <defs>
       <path d="M 47.40625 41 
C 44.203125 40.390625 43 37.984375 43 36.09375 
C 43 33.6875 44.90625 32.890625 46.296875 32.890625 
C 49.296875 32.890625 51.40625 35.484375 51.40625 38.1875 
C 51.40625 42.09375 46.59375 44 42.40625 44 
C 36.296875 44 32.90625 38.296875 32 36.390625 
C 29.703125 43.59375 23.5 44 21.703125 44 
C 11.5 44 6.09375 31.140625 6.09375 28.890625 
C 6.09375 28.484375 6.5 27.96875 7.203125 27.96875 
C 8 27.96875 8.203125 28.578125 8.40625 28.984375 
C 11.796875 40.1875 18.5 41.984375 21.40625 41.984375 
C 25.90625 41.984375 26.796875 38.09375 26.796875 35.6875 
C 26.796875 33.484375 26.203125 31.140625 25 26.21875 
L 21.59375 12.15625 
C 20.09375 6.09375 17.203125 1 11.90625 1 
C 11.40625 1 8.90625 1 6.796875 1.96875 
C 10.40625 2.59375 11.203125 5.59375 11.203125 6.796875 
C 11.203125 8.796875 9.703125 10 7.796875 10 
C 5.40625 10 2.796875 7.890625 2.796875 4.6875 
C 2.796875 0.890625 7.5 -1 11.796875 -1 
C 16.59375 -1 20 2.390625 22.09375 6.484375 
C 23.703125 1 28.703125 -1 32.40625 -1 
C 42.59375 -1 48 11.734375 48 14 
C 48 14.515625 47.59375 14.921875 47 14.921875 
C 46.09375 14.921875 46 14.40625 45.703125 13.59375 
C 43 4.6875 37.203125 1 32.703125 1 
C 29.203125 1 27.296875 3.1875 27.296875 7.296875 
C 27.296875 9.484375 27.703125 11.125 29.296875 17.90625 
L 32.796875 31.859375 
C 34.296875 37.890625 37.703125 41.984375 42.296875 41.984375 
C 42.5 41.984375 45.296875 41.984375 47.40625 41 
z
" id="CMMI12-120"/>
       <path d="M 28.296875 14.265625 
C 28.296875 14.765625 27.90625 15.15625 27.296875 15.15625 
C 26.40625 15.15625 26.296875 14.859375 25.796875 13.15625 
C 23.203125 4.078125 19.09375 1 15.796875 1 
C 14.59375 1 13.203125 1.296875 13.203125 4.28125 
C 13.203125 6.984375 14.40625 9.96875 15.5 12.96875 
L 22.5 31.515625 
C 22.796875 32.3125 23.5 34.109375 23.5 36.015625 
C 23.5 40.203125 20.5 44 15.59375 44 
C 6.40625 44 2.703125 29.53125 2.703125 28.71875 
C 2.703125 28.328125 3.09375 27.828125 3.796875 27.828125 
C 4.703125 27.828125 4.796875 28.234375 5.203125 29.625 
C 7.59375 38 11.40625 41.984375 15.296875 41.984375 
C 16.203125 41.984375 17.90625 41.890625 17.90625 38.703125 
C 17.90625 36.109375 16.59375 32.8125 15.796875 30.625 
L 8.796875 12.0625 
C 8.203125 10.46875 7.59375 8.875 7.59375 7.078125 
C 7.59375 2.59375 10.703125 -1 15.5 -1 
C 24.703125 -1 28.296875 13.5625 28.296875 14.265625 
z
M 27.5 62.6875 
C 27.5 64.1875 26.296875 66 24.09375 66 
C 21.796875 66 19.203125 63.796875 19.203125 61.1875 
C 19.203125 58.6875 21.296875 57.890625 22.5 57.890625 
C 25.203125 57.890625 27.5 60.484375 27.5 62.6875 
z
" id="CMMI12-105"/>
       <path d="M 30.59375 -24.40625 
C 30.59375 -24.3125 30.59375 -24.109375 30.296875 -23.8125 
C 25.703125 -19.109375 13.40625 -6.296875 13.40625 24.9375 
C 13.40625 56.171875 25.5 68.875 30.40625 73.890625 
C 30.40625 73.984375 30.59375 74.1875 30.59375 74.484375 
C 30.59375 74.796875 30.296875 75 29.90625 75 
C 28.796875 75 20.296875 67.578125 15.40625 56.5625 
C 10.40625 45.453125 9 34.65625 9 25.046875 
C 9 17.828125 9.703125 5.625 15.703125 -7.296875 
C 20.5 -17.703125 28.703125 -25 29.90625 -25 
C 30.40625 -25 30.59375 -24.8125 30.59375 -24.40625 
z
" id="CMR17-40"/>
       <path d="M 26.296875 24.9375 
C 26.296875 32.140625 25.59375 44.359375 19.59375 57.265625 
C 14.796875 67.6875 6.59375 75 5.40625 75 
C 5.09375 75 4.703125 74.890625 4.703125 74.390625 
C 4.703125 74.1875 4.796875 74.09375 4.90625 73.890625 
C 9.703125 68.875 21.90625 56.171875 21.90625 25.046875 
C 21.90625 -6.1875 9.796875 -18.90625 4.90625 -23.90625 
C 4.796875 -24.109375 4.703125 -24.203125 4.703125 -24.40625 
C 4.703125 -24.90625 5.09375 -25 5.40625 -25 
C 6.5 -25 15 -17.609375 19.90625 -6.59375 
C 24.90625 4.515625 26.296875 15.328125 26.296875 24.9375 
z
" id="CMR17-41"/>
      </defs>
      <use transform="scale(0.996264)" xlink:href="#CMMI12-120"/>
      <use transform="translate(55.43406 -14.943915)scale(0.697382)" xlink:href="#CMMI12-105"/>
      <use transform="translate(79.227099 0)scale(0.996264)" xlink:href="#CMR17-40"/>
      <use transform="translate(114.507867 0)scale(0.996264)" xlink:href="#CMMI12-116"/>
      <use transform="translate(149.734197 0)scale(0.996264)" xlink:href="#CMR17-41"/>
     </g>
    </g>
   </g>
   <g id="line2d_17">
    <path clip-path="url(#p611b174074)" d="M 47.438505 61.064698 
L 50.82184 57.403822 
L 54.205174 54.035359 
L 57.588509 50.958873 
L 60.971843 48.173934 
L 64.355178 45.680111 
L 67.738513 43.476986 
L 71.121847 41.564124 
L 74.505182 39.94098 
L 77.888516 38.606237 
L 81.271851 37.557738 
L 84.655185 36.793251 
L 88.03852 36.310594 
L 91.421854 36.107579 
L 94.805189 36.181562 
L 98.188524 36.529119 
L 101.571858 37.146762 
L 104.955193 38.03093 
L 108.338527 39.177761 
L 111.721862 40.583402 
L 115.105196 42.244152 
L 118.488531 44.156173 
L 121.871865 46.313976 
L 125.2552 48.707153 
L 128.638534 51.31566 
L 132.021869 54.102403 
L 135.405204 57.023157 
L 138.788538 60.045754 
L 142.171873 63.147105 
L 145.555207 66.308858 
L 148.938542 69.513423 
L 152.321876 72.73902 
L 155.705211 75.951557 
L 159.088545 79.088787 
L 162.47188 82.056552 
L 165.855214 84.77959 
L 169.238549 87.229725 
L 172.621884 89.401787 
L 176.005218 91.294859 
L 179.388553 92.908227 
L 182.771887 94.241261 
L 186.155222 95.293415 
L 189.538556 96.064201 
L 192.921891 96.553186 
L 196.305225 96.75996 
L 199.68856 96.684149 
L 203.071895 96.325406 
L 206.455229 95.683404 
L 209.838564 94.757831 
L 213.221898 93.548387 
L 216.605233 92.054988 
L 219.988567 90.278921 
L 223.371902 88.222933 
L 226.755236 85.890154 
L 230.138571 83.284925 
L 233.521905 80.412293 
L 236.90524 77.27718 
L 240.288575 73.884262 
L 243.671909 70.238054 
L 247.055244 66.342825 
" style="fill:none;stroke:#1f77b4;stroke-linecap:square;stroke-width:1.5;"/>
   </g>
   <g id="line2d_18">
    <path clip-path="url(#p611b174074)" d="M 47.438505 66.329492 
L 50.82184 66.208332 
L 54.205174 66.027658 
L 57.588509 65.792417 
L 60.971843 65.507553 
L 64.355178 65.178001 
L 67.738513 64.808688 
L 71.121847 64.404534 
L 74.505182 63.970455 
L 77.888516 63.511346 
L 81.271851 63.032075 
L 84.655185 62.537473 
L 88.03852 62.032331 
L 91.421854 61.521406 
L 94.805189 61.009413 
L 98.188524 60.501015 
L 101.571858 60.000817 
L 104.955193 59.513366 
L 108.338527 59.043141 
L 111.721862 58.594561 
L 115.105196 58.171977 
L 118.488531 57.77968 
L 121.871865 57.421882 
L 125.2552 57.10267 
L 128.638534 56.82588 
L 132.021869 56.594869 
L 135.405204 56.412271 
L 138.788538 56.280067 
L 142.171873 56.199775 
L 145.555207 56.172572 
L 148.938542 56.199332 
L 152.321876 56.280606 
L 155.705211 56.416491 
L 159.088545 56.606292 
L 162.47188 56.847953 
L 165.855214 57.137907 
L 169.238549 57.471712 
L 172.621884 57.844688 
L 176.005218 58.252114 
L 179.388553 58.689261 
L 182.771887 59.151384 
L 186.155222 59.633728 
L 189.538556 60.131531 
L 192.921891 60.640025 
L 196.305225 61.154429 
L 199.68856 61.669965 
L 203.071895 62.181839 
L 206.455229 62.685254 
L 209.838564 63.175412 
L 213.221898 63.647508 
L 216.605233 64.096729 
L 219.988567 64.518272 
L 223.371902 64.907373 
L 226.755236 65.259315 
L 230.138571 65.569443 
L 233.521905 65.833185 
L 236.90524 66.046051 
L 240.288575 66.203636 
L 243.671909 66.301608 
L 247.055244 66.335715 
" style="fill:none;stroke:#ff7f0e;stroke-linecap:square;stroke-width:1.5;"/>
   </g>
   <g id="line2d_19">
    <path clip-path="url(#p611b174074)" d="M 47.438505 66.329492 
L 50.82184 66.328533 
L 54.205174 66.325003 
L 57.588509 66.317936 
L 60.971843 66.306449 
L 64.355178 66.289745 
L 67.738513 66.267109 
L 71.121847 66.237909 
L 74.505182 66.201597 
L 77.888516 66.157709 
L 81.271851 66.105862 
L 84.655185 66.045756 
L 88.03852 65.977172 
L 91.421854 65.899973 
L 94.805189 65.8141 
L 98.188524 65.719577 
L 101.571858 65.616502 
L 104.955193 65.505054 
L 108.338527 65.385488 
L 111.721862 65.258132 
L 115.105196 65.123389 
L 118.488531 64.981739 
L 121.871865 64.833729 
L 125.2552 64.679979 
L 128.638534 64.521175 
L 132.021869 64.358066 
L 135.405204 64.191451 
L 138.788538 64.022166 
L 142.171873 63.85108 
L 145.555207 63.679083 
L 148.938542 63.50708 
L 152.321876 63.335993 
L 155.705211 63.166745 
L 159.088545 63.000257 
L 162.47188 62.837428 
L 165.855214 62.679109 
L 169.238549 62.526079 
L 172.621884 62.379043 
L 176.005218 62.238624 
L 179.388553 62.105366 
L 182.771887 61.979733 
L 186.155222 61.862107 
L 189.538556 61.752792 
L 192.921891 61.652008 
L 196.305225 61.559897 
L 199.68856 61.476518 
L 203.071895 61.401851 
L 206.455229 61.335793 
L 209.838564 61.278161 
L 213.221898 61.228689 
L 216.605233 61.187032 
L 219.988567 61.152761 
L 223.371902 61.125368 
L 226.755236 61.104264 
L 230.138571 61.08878 
L 233.521905 61.07817 
L 236.90524 61.071609 
L 240.288575 61.068199 
L 243.671909 61.066969 
L 247.055244 61.066871 
" style="fill:none;stroke:#2ca02c;stroke-linecap:square;stroke-width:1.5;"/>
   </g>
   <g id="patch_3">
    <path d="M 47.438505 118.977432 
L 47.438505 13.681551 
" style="fill:none;stroke:#000000;stroke-linecap:square;stroke-linejoin:miter;stroke-width:0.8;"/>
   </g>
   <g id="patch_4">
    <path d="M 247.055244 118.977432 
L 247.055244 13.681551 
" style="fill:none;stroke:#000000;stroke-linecap:square;stroke-linejoin:miter;stroke-width:0.8;"/>
   </g>
   <g id="patch_5">
    <path d="M 47.438505 118.977432 
L 247.055244 118.977432 
" style="fill:none;stroke:#000000;stroke-linecap:square;stroke-linejoin:miter;stroke-width:0.8;"/>
   </g>
   <g id="patch_6">
    <path d="M 47.438505 13.681551 
L 247.055244 13.681551 
" style="fill:none;stroke:#000000;stroke-linecap:square;stroke-linejoin:miter;stroke-width:0.8;"/>
   </g>
   <g id="text_14">
    <g id="patch_7">
     <path d="M 51.43084 27.754758 
L 64.160919 27.754758 
L 64.160919 17.792118 
L 51.43084 17.792118 
z
" style="fill:#ffffff;opacity:0.7;"/>
    </g>
    <!-- (a) -->
    <g transform="translate(51.43084 25.264098)scale(0.1 -0.1)">
     <defs>
      <path d="M 36 25.875 
C 36 32 36 35.546875 31.796875 39.59375 
C 28.09375 42.984375 23.796875 44 20.40625 44 
C 12.5 44 6.796875 37.625 6.796875 30.890625 
C 6.796875 27.1875 9.796875 27 10.40625 27 
C 11.703125 27 14 27.796875 14 30.59375 
C 14 33.09375 12.09375 34.1875 10.40625 34.1875 
C 10 34.1875 9.5 34.09375 9.203125 34 
C 11.296875 40.53125 16.703125 42.390625 20.203125 42.390625 
C 25.203125 42.390625 30.703125 37.828125 30.703125 29.296875 
L 30.703125 25.5 
C 24.796875 25.296875 17.703125 24.5 12.09375 21.453125 
C 5.796875 17.921875 4 12.84375 4 9 
C 4 1.203125 13 -1 18.296875 -1 
C 23.796875 -1 28.90625 2.109375 31.09375 7.890625 
C 31.296875 3.421875 34.09375 -0.609375 38.5 -0.609375 
C 40.59375 -0.609375 45.90625 0.796875 45.90625 8.796875 
L 45.90625 14.46875 
L 44.09375 14.46875 
L 44.09375 8.703125 
C 44.09375 2.515625 41.40625 1.703125 40.09375 1.703125 
C 36 1.703125 36 6.96875 36 11.4375 
z
M 30.703125 13.859375 
C 30.703125 5.046875 24.5 0.59375 19 0.59375 
C 14 0.59375 10.09375 4.34375 10.09375 9 
C 10.09375 12.046875 11.40625 17.40625 17.203125 20.65625 
C 22 23.390625 27.5 23.796875 30.703125 24 
z
" id="CMR17-97"/>
     </defs>
     <use transform="scale(0.996264)" xlink:href="#CMR17-40"/>
     <use transform="translate(35.280768 0)scale(0.996264)" xlink:href="#CMR17-97"/>
     <use transform="translate(80.971245 0)scale(0.996264)" xlink:href="#CMR17-41"/>
    </g>
   </g>
   <g id="legend_1">
    <g id="line2d_20">
     <path d="M 84.967831 24.059135 
L 100.967831 24.059135 
" style="fill:none;stroke:#1f77b4;stroke-linecap:square;stroke-width:1.5;"/>
    </g>
    <g id="line2d_21"/>
    <g id="text_15">
     <!-- $x_1(t)$ -->
     <g transform="translate(107.367831 26.859135)scale(0.08 -0.08)">
      <use transform="scale(0.996264)" xlink:href="#CMMI12-120"/>
      <use transform="translate(55.43406 -14.943915)scale(0.697382)" xlink:href="#CMR17-49"/>
      <use transform="translate(87.915374 0)scale(0.996264)" xlink:href="#CMR17-40"/>
      <use transform="translate(123.196141 0)scale(0.996264)" xlink:href="#CMMI12-116"/>
      <use transform="translate(158.422472 0)scale(0.996264)" xlink:href="#CMR17-41"/>
     </g>
    </g>
    <g id="line2d_22">
     <path d="M 141.930302 24.059135 
L 157.930302 24.059135 
" style="fill:none;stroke:#ff7f0e;stroke-linecap:square;stroke-width:1.5;"/>
    </g>
    <g id="line2d_23"/>
    <g id="text_16">
     <!-- $x_2(t)$ -->
     <g transform="translate(164.330302 26.859135)scale(0.08 -0.08)">
      <use transform="scale(0.996264)" xlink:href="#CMMI12-120"/>
      <use transform="translate(55.43406 -14.943915)scale(0.697382)" xlink:href="#CMR17-50"/>
      <use transform="translate(87.915374 0)scale(0.996264)" xlink:href="#CMR17-40"/>
      <use transform="translate(123.196141 0)scale(0.996264)" xlink:href="#CMMI12-116"/>
      <use transform="translate(158.422472 0)scale(0.996264)" xlink:href="#CMR17-41"/>
     </g>
    </g>
    <g id="line2d_24">
     <path d="M 198.892773 24.059135 
L 214.892773 24.059135 
" style="fill:none;stroke:#2ca02c;stroke-linecap:square;stroke-width:1.5;"/>
    </g>
    <g id="line2d_25"/>
    <g id="text_17">
     <!-- $x_3(t)$ -->
     <g transform="translate(221.292773 26.859135)scale(0.08 -0.08)">
      <defs>
       <path d="M 22.09375 34 
C 31 34 34.90625 26.140625 34.90625 17.09375 
C 34.90625 5.03125 28.5 0.390625 22.703125 0.390625 
C 17.40625 0.390625 8.796875 3.015625 6.09375 10.796875 
C 6.59375 10.59375 7.09375 10.59375 7.59375 10.59375 
C 10 10.59375 11.796875 12.1875 11.796875 14.796875 
C 11.796875 17.6875 9.59375 19 7.59375 19 
C 5.90625 19 3.296875 18.1875 3.296875 14.484375 
C 3.296875 5.234375 12.296875 -2 22.90625 -2 
C 34 -2 42.5 6.75 42.5 16.984375 
C 42.5 26.84375 34.5 34 25 35.09375 
C 32.59375 36.671875 39.90625 43.375 39.90625 52.390625 
C 39.90625 60.25 32 66 23 66 
C 13.90625 66 5.90625 60.34375 5.90625 52.296875 
C 5.90625 48.796875 8.5 48.1875 9.796875 48.1875 
C 11.90625 48.1875 13.703125 49.484375 13.703125 52.09375 
C 13.703125 54.6875 11.90625 56 9.796875 56 
C 9.40625 56 8.90625 56 8.5 55.796875 
C 11.40625 62.484375 19.296875 63.6875 22.796875 63.6875 
C 26.296875 63.6875 32.90625 61.96875 32.90625 52.296875 
C 32.90625 49.484375 32.5 44.546875 29.09375 40.21875 
C 26.09375 36.390625 22.703125 36.1875 19.40625 35.890625 
C 18.90625 35.890625 16.59375 35.6875 16.203125 35.6875 
C 15.5 35.59375 15.09375 35.5 15.09375 34.796875 
C 15.09375 34.09375 15.203125 34 17.203125 34 
z
" id="CMR17-51"/>
      </defs>
      <use transform="scale(0.996264)" xlink:href="#CMMI12-120"/>
      <use transform="translate(55.43406 -14.943915)scale(0.697382)" xlink:href="#CMR17-51"/>
      <use transform="translate(87.915374 0)scale(0.996264)" xlink:href="#CMR17-40"/>
      <use transform="translate(123.196141 0)scale(0.996264)" xlink:href="#CMMI12-116"/>
      <use transform="translate(158.422472 0)scale(0.996264)" xlink:href="#CMR17-41"/>
     </g>
    </g>
   </g>
   <g id="line2d_26">
    <path clip-path="url(#p611b174074)" d="M 47.438505 61.064698 
L 50.82184 56.759652 
L 54.205174 52.927332 
L 57.588509 49.550834 
L 60.971843 46.61325 
L 64.355178 44.097677 
L 67.738513 41.98721 
L 71.121847 40.264946 
L 74.505182 38.913973 
L 77.888516 37.917392 
L 81.271851 37.258294 
L 84.655185 36.919775 
L 88.03852 36.88493 
L 91.421854 37.136856 
L 94.805189 37.658643 
L 98.188524 38.433387 
L 101.571858 39.444187 
L 104.955193 40.674132 
L 108.338527 42.106321 
L 111.721862 43.723843 
L 115.105196 45.509805 
L 118.488531 47.447288 
L 121.871865 49.519393 
L 125.2552 51.709214 
L 128.638534 53.999845 
L 132.021869 56.374382 
L 135.405204 58.81592 
L 138.788538 61.307557 
L 142.171873 63.832381 
L 145.555207 66.373489 
L 148.938542 68.913981 
L 152.321876 71.436938 
L 155.705211 73.925473 
L 159.088545 76.362672 
L 162.47188 78.731621 
L 165.855214 81.015431 
L 169.238549 83.197181 
L 172.621884 85.259982 
L 176.005218 87.186914 
L 179.388553 88.961085 
L 182.771887 90.565581 
L 186.155222 91.983501 
L 189.538556 93.197931 
L 192.921891 94.191976 
L 196.305225 94.948723 
L 199.68856 95.451277 
L 203.071895 95.682726 
L 206.455229 95.626163 
L 209.838564 95.264686 
L 213.221898 94.581389 
L 216.605233 93.559365 
L 219.988567 92.181716 
L 223.371902 90.431526 
L 226.755236 88.2919 
L 230.138571 85.745921 
L 233.521905 82.776688 
L 236.90524 79.367311 
L 240.288575 75.500859 
L 243.671909 71.160454 
L 247.055244 66.329163 
" style="fill:none;stroke:#000000;stroke-dasharray:5.55,2.4;stroke-dashoffset:0;stroke-opacity:0.6;stroke-width:1.5;"/>
   </g>
   <g id="line2d_27">
    <path clip-path="url(#p611b174074)" d="M 47.438505 66.329492 
L 50.82184 66.202527 
L 54.205174 66.006705 
L 57.588509 65.749889 
L 60.971843 65.439655 
L 64.355178 65.083293 
L 67.738513 64.687808 
L 71.121847 64.259915 
L 74.505182 63.806047 
L 77.888516 63.332348 
L 81.271851 62.844677 
L 84.655185 62.348607 
L 88.03852 61.849423 
L 91.421854 61.352124 
L 94.805189 60.861425 
L 98.188524 60.381752 
L 101.571858 59.917246 
L 104.955193 59.471762 
L 108.338527 59.048867 
L 111.721862 58.651844 
L 115.105196 58.283688 
L 118.488531 57.94711 
L 121.871865 57.64453 
L 125.2552 57.378087 
L 128.638534 57.14963 
L 132.021869 56.960724 
L 135.405204 56.812646 
L 138.788538 56.706389 
L 142.171873 56.642656 
L 145.555207 56.621868 
L 148.938542 56.644156 
L 152.321876 56.709367 
L 155.705211 56.817062 
L 159.088545 56.966513 
L 162.47188 57.156708 
L 165.855214 57.386348 
L 169.238549 57.653848 
L 172.621884 57.957337 
L 176.005218 58.294656 
L 179.388553 58.663362 
L 182.771887 59.060725 
L 186.155222 59.483728 
L 189.538556 59.929065 
L 192.921891 60.393152 
L 196.305225 60.872108 
L 199.68856 61.361777 
L 203.071895 61.857706 
L 206.455229 62.355162 
L 209.838564 62.849124 
L 213.221898 63.334287 
L 216.605233 63.805056 
L 219.988567 64.25555 
L 223.371902 64.679606 
L 226.755236 65.070768 
L 230.138571 65.422301 
L 233.521905 65.727179 
L 236.90524 65.97809 
L 240.288575 66.167437 
L 243.671909 66.287336 
L 247.055244 66.329618 
" style="fill:none;stroke:#000000;stroke-dasharray:5.55,2.4;stroke-dashoffset:0;stroke-opacity:0.6;stroke-width:1.5;"/>
   </g>
   <g id="line2d_28">
    <path clip-path="url(#p611b174074)" d="M 47.438505 66.329492 
L 50.82184 66.328498 
L 54.205174 66.32475 
L 57.588509 66.317149 
L 60.971843 66.304727 
L 64.355178 66.286642 
L 67.738513 66.262174 
L 71.121847 66.230717 
L 74.505182 66.191778 
L 77.888516 66.14497 
L 81.271851 66.090008 
L 84.655185 66.026703 
L 88.03852 65.954958 
L 91.421854 65.874764 
L 94.805189 65.786194 
L 98.188524 65.689397 
L 101.571858 65.584597 
L 104.955193 65.472082 
L 108.338527 65.352207 
L 111.721862 65.225383 
L 115.105196 65.092073 
L 118.488531 64.952789 
L 121.871865 64.808089 
L 125.2552 64.658567 
L 128.638534 64.50485 
L 132.021869 64.347596 
L 135.405204 64.187486 
L 138.788538 64.025221 
L 142.171873 63.861516 
L 145.555207 63.697094 
L 148.938542 63.532685 
L 152.321876 63.369018 
L 155.705211 63.206816 
L 159.088545 63.046793 
L 162.47188 62.889649 
L 165.855214 62.736063 
L 169.238549 62.586691 
L 172.621884 62.442158 
L 176.005218 62.303057 
L 179.388553 62.169939 
L 182.771887 62.043314 
L 186.155222 61.923643 
L 189.538556 61.811333 
L 192.921891 61.706732 
L 196.305225 61.610125 
L 199.68856 61.52173 
L 203.071895 61.441691 
L 206.455229 61.370076 
L 209.838564 61.306867 
L 213.221898 61.251962 
L 216.605233 61.205166 
L 219.988567 61.166184 
L 223.371902 61.134624 
L 226.755236 61.109983 
L 230.138571 61.091648 
L 233.521905 61.07889 
L 236.90524 61.070856 
L 240.288575 61.066571 
L 243.671909 61.064926 
L 247.055244 61.064676 
" style="fill:none;stroke:#000000;stroke-dasharray:5.55,2.4;stroke-dashoffset:0;stroke-opacity:0.6;stroke-width:1.5;"/>
   </g>
  </g>
  <g id="axes_2">
   <g id="patch_8">
    <path d="M 297.677907 118.977432 
L 497.294645 118.977432 
L 497.294645 13.681551 
L 297.677907 13.681551 
z
" style="fill:#ffffff;"/>
   </g>
   <g id="matplotlib.axis_3">
    <g id="xtick_12">
     <g id="line2d_29">
      <g>
       <use style="stroke:#000000;stroke-width:0.8;" x="297.677907" xlink:href="#mbad47b01c5" y="118.977432"/>
      </g>
     </g>
     <g id="text_18">
      <!-- $\mathdefault{0.0}$ -->
      <g transform="translate(292.044392 131.740534)scale(0.0833 -0.0833)">
       <use transform="scale(0.996264)" xlink:href="#CMR17-48"/>
       <use transform="translate(45.690477 0)scale(0.996264)" xlink:href="#CMMI12-58"/>
       <use transform="translate(72.787654 0)scale(0.996264)" xlink:href="#CMR17-48"/>
      </g>
     </g>
    </g>
    <g id="xtick_13">
     <g id="line2d_30">
      <g>
       <use style="stroke:#000000;stroke-width:0.8;" x="337.601254" xlink:href="#mbad47b01c5" y="118.977432"/>
      </g>
     </g>
     <g id="text_19">
      <!-- $\mathdefault{0.2}$ -->
      <g transform="translate(331.96774 131.740534)scale(0.0833 -0.0833)">
       <use transform="scale(0.996264)" xlink:href="#CMR17-48"/>
       <use transform="translate(45.690477 0)scale(0.996264)" xlink:href="#CMMI12-58"/>
       <use transform="translate(72.787654 0)scale(0.996264)" xlink:href="#CMR17-50"/>
      </g>
     </g>
    </g>
    <g id="xtick_14">
     <g id="line2d_31">
      <g>
       <use style="stroke:#000000;stroke-width:0.8;" x="377.524602" xlink:href="#mbad47b01c5" y="118.977432"/>
      </g>
     </g>
     <g id="text_20">
      <!-- $\mathdefault{0.4}$ -->
      <g transform="translate(371.891088 131.740534)scale(0.0833 -0.0833)">
       <use transform="scale(0.996264)" xlink:href="#CMR17-48"/>
       <use transform="translate(45.690477 0)scale(0.996264)" xlink:href="#CMMI12-58"/>
       <use transform="translate(72.787654 0)scale(0.996264)" xlink:href="#CMR17-52"/>
      </g>
     </g>
    </g>
    <g id="xtick_15">
     <g id="line2d_32">
      <g>
       <use style="stroke:#000000;stroke-width:0.8;" x="417.44795" xlink:href="#mbad47b01c5" y="118.977432"/>
      </g>
     </g>
     <g id="text_21">
      <!-- $\mathdefault{0.6}$ -->
      <g transform="translate(411.814435 131.740534)scale(0.0833 -0.0833)">
       <use transform="scale(0.996264)" xlink:href="#CMR17-48"/>
       <use transform="translate(45.690477 0)scale(0.996264)" xlink:href="#CMMI12-58"/>
       <use transform="translate(72.787654 0)scale(0.996264)" xlink:href="#CMR17-54"/>
      </g>
     </g>
    </g>
    <g id="xtick_16">
     <g id="line2d_33">
      <g>
       <use style="stroke:#000000;stroke-width:0.8;" x="457.371297" xlink:href="#mbad47b01c5" y="118.977432"/>
      </g>
     </g>
     <g id="text_22">
      <!-- $\mathdefault{0.8}$ -->
      <g transform="translate(451.737783 131.740534)scale(0.0833 -0.0833)">
       <use transform="scale(0.996264)" xlink:href="#CMR17-48"/>
       <use transform="translate(45.690477 0)scale(0.996264)" xlink:href="#CMMI12-58"/>
       <use transform="translate(72.787654 0)scale(0.996264)" xlink:href="#CMR17-56"/>
      </g>
     </g>
    </g>
    <g id="xtick_17">
     <g id="line2d_34">
      <g>
       <use style="stroke:#000000;stroke-width:0.8;" x="497.294645" xlink:href="#mbad47b01c5" y="118.977432"/>
      </g>
     </g>
     <g id="text_23">
      <!-- $\mathdefault{1.0}$ -->
      <g transform="translate(491.661131 131.740534)scale(0.0833 -0.0833)">
       <use transform="scale(0.996264)" xlink:href="#CMR17-49"/>
       <use transform="translate(45.690477 0)scale(0.996264)" xlink:href="#CMMI12-58"/>
       <use transform="translate(72.787654 0)scale(0.996264)" xlink:href="#CMR17-48"/>
      </g>
     </g>
    </g>
    <g id="xtick_18">
     <g id="line2d_35">
      <g>
       <use style="stroke:#000000;stroke-width:0.6;" x="317.639581" xlink:href="#m58cf8d97e4" y="118.977432"/>
      </g>
     </g>
    </g>
    <g id="xtick_19">
     <g id="line2d_36">
      <g>
       <use style="stroke:#000000;stroke-width:0.6;" x="357.562928" xlink:href="#m58cf8d97e4" y="118.977432"/>
      </g>
     </g>
    </g>
    <g id="xtick_20">
     <g id="line2d_37">
      <g>
       <use style="stroke:#000000;stroke-width:0.6;" x="397.486276" xlink:href="#m58cf8d97e4" y="118.977432"/>
      </g>
     </g>
    </g>
    <g id="xtick_21">
     <g id="line2d_38">
      <g>
       <use style="stroke:#000000;stroke-width:0.6;" x="437.409624" xlink:href="#m58cf8d97e4" y="118.977432"/>
      </g>
     </g>
    </g>
    <g id="xtick_22">
     <g id="line2d_39">
      <g>
       <use style="stroke:#000000;stroke-width:0.6;" x="477.332971" xlink:href="#m58cf8d97e4" y="118.977432"/>
      </g>
     </g>
    </g>
    <g id="text_24">
     <!-- $t$ -->
     <g transform="translate(395.687464 144.272702)scale(0.1 -0.1)">
      <use transform="scale(0.996264)" xlink:href="#CMMI12-116"/>
     </g>
    </g>
   </g>
   <g id="matplotlib.axis_4">
    <g id="ytick_6">
     <g id="line2d_40">
      <g>
       <use style="stroke:#000000;stroke-width:0.8;" x="297.677907" xlink:href="#m997476b047" y="118.977432"/>
      </g>
     </g>
     <g id="text_25">
      <!-- $\mathdefault{0}$ -->
      <g transform="translate(286.269071 121.858983)scale(0.0833 -0.0833)">
       <use transform="scale(0.996264)" xlink:href="#CMR17-48"/>
      </g>
     </g>
    </g>
    <g id="ytick_7">
     <g id="line2d_41">
      <g>
       <use style="stroke:#000000;stroke-width:0.8;" x="297.677907" xlink:href="#m997476b047" y="92.653462"/>
      </g>
     </g>
     <g id="text_26">
      <!-- $\mathdefault{200}$ -->
      <g transform="translate(277.451398 95.535013)scale(0.0833 -0.0833)">
       <use transform="scale(0.996264)" xlink:href="#CMR17-50"/>
       <use transform="translate(45.690477 0)scale(0.996264)" xlink:href="#CMR17-48"/>
       <use transform="translate(91.380954 0)scale(0.996264)" xlink:href="#CMR17-48"/>
      </g>
     </g>
    </g>
    <g id="ytick_8">
     <g id="line2d_42">
      <g>
       <use style="stroke:#000000;stroke-width:0.8;" x="297.677907" xlink:href="#m997476b047" y="66.329492"/>
      </g>
     </g>
     <g id="text_27">
      <!-- $\mathdefault{400}$ -->
      <g transform="translate(277.451398 69.211043)scale(0.0833 -0.0833)">
       <use transform="scale(0.996264)" xlink:href="#CMR17-52"/>
       <use transform="translate(45.690477 0)scale(0.996264)" xlink:href="#CMR17-48"/>
       <use transform="translate(91.380954 0)scale(0.996264)" xlink:href="#CMR17-48"/>
      </g>
     </g>
    </g>
    <g id="ytick_9">
     <g id="line2d_43">
      <g>
       <use style="stroke:#000000;stroke-width:0.8;" x="297.677907" xlink:href="#m997476b047" y="40.005521"/>
      </g>
     </g>
     <g id="text_28">
      <!-- $\mathdefault{600}$ -->
      <g transform="translate(277.451398 42.887072)scale(0.0833 -0.0833)">
       <use transform="scale(0.996264)" xlink:href="#CMR17-54"/>
       <use transform="translate(45.690477 0)scale(0.996264)" xlink:href="#CMR17-48"/>
       <use transform="translate(91.380954 0)scale(0.996264)" xlink:href="#CMR17-48"/>
      </g>
     </g>
    </g>
    <g id="ytick_10">
     <g id="line2d_44">
      <g>
       <use style="stroke:#000000;stroke-width:0.8;" x="297.677907" xlink:href="#m997476b047" y="13.681551"/>
      </g>
     </g>
     <g id="text_29">
      <!-- $\mathdefault{800}$ -->
      <g transform="translate(277.451398 16.563102)scale(0.0833 -0.0833)">
       <use transform="scale(0.996264)" xlink:href="#CMR17-56"/>
       <use transform="translate(45.690477 0)scale(0.996264)" xlink:href="#CMR17-48"/>
       <use transform="translate(91.380954 0)scale(0.996264)" xlink:href="#CMR17-48"/>
      </g>
     </g>
    </g>
    <g id="text_30">
     <!-- $E_t[ {\bm u} ]$ -->
     <g transform="translate(270.960738 77.920288)rotate(-90)scale(0.1 -0.1)">
      <defs>
       <path d="M 69.5 23.265625 
C 69.59375 23.5625 69.90625 24.265625 69.90625 24.65625 
C 69.90625 25.171875 69.5 25.671875 68.90625 25.671875 
C 68.5 25.671875 68.296875 25.5625 68 25.265625 
C 67.796875 25.171875 67.796875 24.96875 66.90625 22.953125 
C 61 8.90625 56.703125 2.890625 40.703125 2.890625 
L 26.09375 2.890625 
C 24.703125 2.890625 24.5 2.890625 23.90625 3 
C 22.796875 3.09375 22.703125 3.296875 22.703125 4.09375 
C 22.703125 4.796875 22.90625 5.40625 23.09375 6.296875 
L 30 34 
L 39.90625 34 
C 47.703125 34 48.296875 32.28125 48.296875 29.28125 
C 48.296875 28.28125 48.296875 27.375 47.59375 24.359375 
C 47.40625 23.96875 47.296875 23.5625 47.296875 23.265625 
C 47.296875 22.5625 47.796875 22.25 48.40625 22.25 
C 49.296875 22.25 49.40625 22.953125 49.796875 24.359375 
L 55.5 47.4375 
C 55.5 47.9375 55.09375 48.421875 54.5 48.421875 
C 53.59375 48.421875 53.5 48.03125 53.09375 46.65625 
C 51.09375 39.0625 49.09375 36.890625 40.203125 36.890625 
L 30.703125 36.890625 
L 36.90625 61.140625 
C 37.796875 64.59375 38 64.890625 42.09375 64.890625 
L 56.40625 64.890625 
C 68.703125 64.890625 71.203125 61.640625 71.203125 54.140625 
C 71.203125 54.046875 71.203125 51.28125 70.796875 48.03125 
C 70.703125 47.640625 70.59375 47.046875 70.59375 46.84375 
C 70.59375 46.0625 71.09375 45.765625 71.703125 45.765625 
C 72.40625 45.765625 72.796875 46.15625 73 47.9375 
L 75.09375 65.1875 
C 75.09375 65.484375 75.296875 66.484375 75.296875 66.6875 
C 75.296875 67.796875 74.40625 67.796875 72.59375 67.796875 
L 23.796875 67.796875 
C 21.90625 67.796875 20.90625 67.796875 20.90625 65.984375 
C 20.90625 64.890625 21.59375 64.890625 23.296875 64.890625 
C 29.5 64.890625 29.5 64.203125 29.5 63.109375 
C 29.5 62.625 29.40625 62.234375 29.09375 61.140625 
L 15.59375 7.40625 
C 14.703125 3.890625 14.5 2.890625 7.5 2.890625 
C 5.59375 2.890625 4.59375 2.890625 4.59375 1.09375 
C 4.59375 0 5.203125 0 7.203125 0 
L 57.40625 0 
C 59.59375 0 59.703125 0.09375 60.40625 1.6875 
z
" id="CMMI12-69"/>
       <path d="M 23.5 -25 
L 23.5 -21.5 
L 14.09375 -21.5 
L 14.09375 71.484375 
L 23.5 71.484375 
L 23.5 75 
L 10.59375 75 
L 10.59375 -25 
z
" id="CMR17-91"/>
       <path d="M 56.296875 31.5 
C 57 34.296875 58.203125 39.09375 58.203125 39.796875 
C 58.203125 41.890625 56.59375 44.1875 53.5 44.1875 
C 51.90625 44.1875 48.203125 43.296875 46.90625 38.890625 
C 46.5 37.5 42 19.390625 41.203125 16.09375 
C 40.59375 13.796875 39.90625 10.890625 39.703125 9.09375 
C 37.90625 6.6875 34 2.59375 28.90625 2.59375 
C 23 2.59375 22.90625 7.59375 22.90625 9.890625 
C 22.90625 16 26 23.796875 28.796875 31 
C 29.796875 33.59375 30.09375 34.296875 30.09375 36 
C 30.09375 41.796875 24.296875 45 18.796875 45 
C 8.203125 45 3.203125 31.390625 3.203125 29.390625 
C 3.203125 28 4.703125 28 5.59375 28 
C 6.796875 28 7.5 28 7.90625 29.296875 
C 11.203125 40.390625 16.59375 41.390625 18.203125 41.390625 
C 18.90625 41.390625 19.90625 41.390625 19.90625 39.296875 
C 19.90625 37 18.703125 34.1875 18.296875 33 
C 14.09375 22.5 12.203125 16.890625 12.203125 12 
C 12.203125 0.59375 22.203125 -1 28.09375 -1 
C 31 -1 35.40625 -0.609375 40.796875 4.5 
C 44 -0.40625 49.796875 -1 52.203125 -1 
C 55.90625 -1 58.796875 1.09375 60.90625 4.6875 
C 63.40625 8.6875 64.703125 14.09375 64.703125 14.59375 
C 64.703125 16 63.203125 16 62.296875 16 
C 61.203125 16 60.796875 16 60.296875 15.5 
C 60.09375 15.296875 60.09375 15.09375 59.5 12.59375 
C 57.5 4.796875 55.296875 2.59375 52.703125 2.59375 
C 51.203125 2.59375 50.40625 3.59375 50.40625 6.296875 
C 50.40625 8 50.796875 9.59375 51.796875 13.59375 
C 52.5 16.390625 53.5 20.390625 54 22.59375 
z
" id="CMMIB10-117"/>
       <path d="M 14.296875 75 
L 1.40625 75 
L 1.40625 71.484375 
L 10.796875 71.484375 
L 10.796875 -21.5 
L 1.40625 -21.5 
L 1.40625 -25 
L 14.296875 -25 
z
" id="CMR17-93"/>
      </defs>
      <use transform="scale(0.996264)" xlink:href="#CMMI12-69"/>
      <use transform="translate(72.211218 -14.943915)scale(0.697382)" xlink:href="#CMMI12-116"/>
      <use transform="translate(97.367659 0)scale(0.996264)" xlink:href="#CMR17-91"/>
      <use transform="translate(122.238718 0)scale(0.996264)" xlink:href="#CMMIB10-117"/>
      <use transform="translate(190.085975 0)scale(0.996264)" xlink:href="#CMR17-93"/>
     </g>
    </g>
   </g>
   <g id="line2d_45">
    <path clip-path="url(#p98a25eec4e)" d="M 297.677907 114.979124 
L 301.061241 111.562192 
L 304.444576 108.680227 
L 307.82791 106.287034 
L 311.211245 104.336617 
L 314.594579 102.783186 
L 317.977914 101.581142 
L 321.361249 100.685088 
L 324.744583 100.049656 
L 328.127918 99.628985 
L 331.511252 99.377783 
L 334.894587 99.251805 
L 338.277921 99.207803 
L 341.661256 99.203491 
L 345.04459 99.197577 
L 348.427925 99.150188 
L 351.811259 99.02294 
L 355.194594 98.778979 
L 358.577929 98.383203 
L 361.961263 97.802024 
L 365.344598 96.923801 
L 368.727932 95.78771 
L 372.111267 94.368247 
L 375.494601 92.653223 
L 378.877936 90.646793 
L 382.26127 88.405279 
L 385.644605 85.97792 
L 389.02794 83.401909 
L 392.411274 80.706655 
L 395.794609 77.918357 
L 399.177943 75.06559 
L 402.561278 72.18772 
L 405.944612 69.349711 
L 409.327947 66.669378 
L 412.711281 64.322895 
L 416.094616 62.374477 
L 419.47795 60.805322 
L 422.861285 59.575543 
L 426.24462 58.644644 
L 429.627954 57.971667 
L 433.011289 57.578234 
L 436.394623 57.34581 
L 439.777958 57.232422 
L 443.161292 57.195886 
L 446.544627 57.19383 
L 449.927961 57.183707 
L 453.311296 57.122822 
L 456.69463 56.968331 
L 460.077965 56.677255 
L 463.4613 56.206496 
L 466.844634 55.51307 
L 470.227969 54.55599 
L 473.611303 53.296351 
L 476.994638 51.696737 
L 480.377972 49.723539 
L 483.761307 47.345537 
L 487.144641 44.533263 
L 490.527976 41.258874 
L 493.911311 37.495996 
L 497.294645 33.043109 
" style="fill:none;stroke:#ffa600;stroke-linecap:square;stroke-width:1.5;"/>
   </g>
   <g id="line2d_46">
    <path clip-path="url(#p98a25eec4e)" d="M 297.677907 113.271486 
L 301.061241 108.691531 
L 304.444576 105.081379 
L 307.82791 102.297207 
L 311.211245 100.207117 
L 314.594579 98.690687 
L 317.977914 97.638546 
L 321.361249 96.951916 
L 324.744583 96.542176 
L 328.127918 96.330415 
L 331.511252 96.246993 
L 334.894587 96.231101 
L 338.277921 96.230312 
L 341.661256 96.200142 
L 345.04459 96.103613 
L 348.427925 95.9108 
L 351.811259 95.598396 
L 355.194594 95.149268 
L 358.577929 94.552014 
L 361.961263 93.800518 
L 365.344598 92.842175 
L 368.727932 91.73341 
L 372.111267 90.482544 
L 375.494601 89.101268 
L 378.877936 87.604205 
L 382.26127 86.008461 
L 385.644605 84.33319 
L 389.02794 82.599152 
L 392.411274 80.828257 
L 395.794609 79.043139 
L 399.177943 77.2667 
L 402.561278 75.521681 
L 405.944612 73.830212 
L 409.327947 72.21337 
L 412.711281 70.690737 
L 416.094616 69.279957 
L 419.47795 67.996297 
L 422.861285 66.852195 
L 426.24462 65.856832 
L 429.627954 65.015683 
L 433.011289 64.381423 
L 436.394623 63.89724 
L 439.777958 63.553051 
L 443.161292 63.333156 
L 446.544627 63.215783 
L 449.927961 63.172652 
L 453.311296 63.168534 
L 456.69463 63.160806 
L 460.077965 63.099005 
L 463.4613 62.924394 
L 466.844634 62.569513 
L 470.227969 61.957739 
L 473.611303 61.002844 
L 476.994638 59.608557 
L 480.377972 57.668104 
L 483.761307 55.063787 
L 487.144641 51.666535 
L 490.527976 47.335447 
L 493.911311 41.917375 
L 497.294645 34.789739 
" style="fill:none;stroke:#000000;stroke-dasharray:5.55,2.4;stroke-dashoffset:0;stroke-opacity:0.6;stroke-width:1.5;"/>
   </g>
   <g id="patch_9">
    <path d="M 297.677907 118.977432 
L 297.677907 13.681551 
" style="fill:none;stroke:#000000;stroke-linecap:square;stroke-linejoin:miter;stroke-width:0.8;"/>
   </g>
   <g id="patch_10">
    <path d="M 497.294645 118.977432 
L 497.294645 13.681551 
" style="fill:none;stroke:#000000;stroke-linecap:square;stroke-linejoin:miter;stroke-width:0.8;"/>
   </g>
   <g id="patch_11">
    <path d="M 297.677907 118.977432 
L 497.294645 118.977432 
" style="fill:none;stroke:#000000;stroke-linecap:square;stroke-linejoin:miter;stroke-width:0.8;"/>
   </g>
   <g id="patch_12">
    <path d="M 297.677907 13.681551 
L 497.294645 13.681551 
" style="fill:none;stroke:#000000;stroke-linecap:square;stroke-linejoin:miter;stroke-width:0.8;"/>
   </g>
   <g id="text_31">
    <g id="patch_13">
     <path d="M 301.670241 27.754758 
L 314.953802 27.754758 
L 314.953802 17.792118 
L 301.670241 17.792118 
z
" style="fill:#ffffff;opacity:0.7;"/>
    </g>
    <!-- (b) -->
    <g transform="translate(301.670241 25.264098)scale(0.1 -0.1)">
     <defs>
      <path d="M 15 69 
L 3.09375 67.890625 
L 3.09375 65.296875 
C 9 65.296875 9.90625 64.703125 9.90625 60.046875 
L 9.90625 -0.203125 
L 11.703125 -0.203125 
L 14.59375 6.953125 
C 17.5 2.203125 21.796875 -1 27.59375 -1 
C 37.59375 -1 47.703125 7.859375 47.703125 21.59375 
C 47.703125 34.515625 38.703125 44 28.59375 44 
C 22.40625 44 18 40.671875 15 36.734375 
z
M 15.203125 31.59375 
C 15.203125 33.40625 15.203125 33.703125 16.59375 35.828125 
C 20.5 41.890625 26.09375 42.390625 28 42.390625 
C 31 42.390625 41.296875 40.78125 41.296875 21.6875 
C 41.296875 1.703125 29.5 0.59375 27.09375 0.59375 
C 24 0.59375 19.5 1.796875 16.296875 7.65625 
C 15.203125 9.578125 15.203125 9.78125 15.203125 11.59375 
z
" id="CMR17-98"/>
     </defs>
     <use transform="scale(0.996264)" xlink:href="#CMR17-40"/>
     <use transform="translate(35.280768 0)scale(0.996264)" xlink:href="#CMR17-98"/>
     <use transform="translate(86.176138 0)scale(0.996264)" xlink:href="#CMR17-41"/>
    </g>
   </g>
   <g id="text_32">
    <!-- OC control energy -->
    <g style="fill:#e84a5f;" transform="translate(323.628083 29.475933)scale(0.08 -0.08)">
     <defs>
      <path d="M 67.296875 33.84375 
C 67.296875 54.5 52.59375 70 36 70 
C 19 70 4.59375 54.296875 4.59375 33.84375 
C 4.59375 13.390625 19.203125 -2 35.90625 -2 
C 53 -2 67.296875 13.6875 67.296875 33.84375 
z
M 36 -0.203125 
C 24.59375 -0.203125 12.203125 11.28125 12.203125 35.15625 
C 12.203125 58.921875 25.796875 68.1875 35.90625 68.1875 
C 46.5 68.1875 59.703125 58.625 59.703125 35.15625 
C 59.703125 10.875 47 -0.203125 36 -0.203125 
z
" id="CMR17-79"/>
      <path d="M 62.09375 67.984375 
C 62.09375 69.796875 62 69.890625 61.40625 69.890625 
C 61 69.890625 60.90625 69.796875 60.203125 68.59375 
L 55.796875 60.140625 
C 50.90625 66.390625 44.90625 70 37.203125 70 
C 20.09375 70 4.59375 54.796875 4.59375 34.046875 
C 4.59375 13.078125 20.09375 -2 37.296875 -2 
C 52.59375 -2 62.09375 11.578125 62.09375 23.15625 
C 62.09375 24.171875 62.09375 24.578125 61.203125 24.578125 
C 60.40625 24.578125 60.40625 24.265625 60.296875 23.359375 
C 59.5 9.25 49.5 0.59375 38.703125 0.59375 
C 28.5 0.59375 12.203125 7.84375 12.203125 34.046875 
C 12.203125 60.34375 28.796875 67.390625 38.5 67.390625 
C 49.796875 67.390625 58 57.515625 59.90625 43.515625 
C 60.09375 42.296875 60.09375 42.109375 61 42.109375 
C 62.09375 42.109375 62.09375 42.296875 62.09375 44.125 
z
" id="CMR17-67"/>
      <path d="M 34.90625 35 
C 33 35 30.203125 35 30.203125 31.484375 
C 30.203125 28.6875 32.5 27.890625 33.796875 27.890625 
C 34.5 27.890625 37.40625 28.1875 37.40625 31.6875 
C 37.40625 38.6875 30.59375 44 22.90625 44 
C 12.296875 44 3.296875 34.390625 3.296875 21.546875 
C 3.296875 8.140625 12.703125 -1 22.90625 -1 
C 35.296875 -1 38.40625 10.5625 38.40625 11.671875 
C 38.40625 12.078125 38.296875 12.375 37.59375 12.375 
C 36.90625 12.375 36.796875 12.28125 36.40625 10.96875 
C 33.796875 2.8125 28.09375 0.796875 23.796875 0.796875 
C 17.40625 0.796875 9.703125 6.734375 9.703125 21.640625 
C 9.703125 36.84375 17.09375 42.1875 23 42.1875 
C 26.90625 42.1875 32.703125 40.34375 34.90625 35 
z
" id="CMR17-99"/>
      <path d="M 43.09375 21.1875 
C 43.09375 34 33.796875 44 22.90625 44 
C 12 44 2.703125 34 2.703125 21.1875 
C 2.703125 8.59375 12 -1 22.90625 -1 
C 33.796875 -1 43.09375 8.59375 43.09375 21.1875 
z
M 22.90625 0.796875 
C 18.203125 0.796875 14.203125 3.59375 11.90625 7.5 
C 9.40625 12 9.09375 17.59375 9.09375 22 
C 9.09375 26.1875 9.296875 31.390625 11.90625 35.890625 
C 13.90625 39.1875 17.796875 42.390625 22.90625 42.390625 
C 27.40625 42.390625 31.203125 39.890625 33.59375 36.390625 
C 36.703125 31.6875 36.703125 25.09375 36.703125 22 
C 36.703125 18.09375 36.5 12.09375 33.796875 7.296875 
C 31 2.6875 26.703125 0.796875 22.90625 0.796875 
z
" id="CMR17-111"/>
      <path d="M 41.5 30.53125 
C 41.5 35.65625 40.5 44 28.703125 44 
C 20.796875 44 16.703125 37.875 15.203125 33.84375 
L 15.09375 33.84375 
L 15.09375 44 
L 3.296875 42.890625 
L 3.296875 40.28125 
C 9.203125 40.28125 10.09375 39.6875 10.09375 34.859375 
L 10.09375 6.921875 
C 10.09375 3.09375 9.703125 2.59375 3.296875 2.59375 
L 3.296875 0 
C 5.703125 0.1875 10.09375 0.1875 12.703125 0.1875 
C 15.296875 0.1875 19.796875 0.1875 22.203125 0 
L 22.203125 2.59375 
C 15.796875 2.59375 15.40625 3 15.40625 6.921875 
L 15.40625 26.21875 
C 15.40625 35.453125 21 42.390625 28 42.390625 
C 35.40625 42.390625 36.203125 35.765625 36.203125 30.9375 
L 36.203125 6.921875 
C 36.203125 3.09375 35.796875 2.59375 29.40625 2.59375 
L 29.40625 0 
C 31.796875 0.1875 36.203125 0.1875 38.796875 0.1875 
C 41.40625 0.1875 45.90625 0.1875 48.296875 0 
L 48.296875 2.59375 
C 41.90625 2.59375 41.5 3 41.5 6.921875 
z
" id="CMR17-110"/>
      <path d="M 15.09375 40.390625 
L 29.09375 40.390625 
L 29.09375 43 
L 15.09375 43 
L 15.09375 62 
L 13.296875 62 
C 13.09375 51.4375 9.59375 42.1875 1.09375 41.984375 
L 1.09375 40.390625 
L 9.796875 40.390625 
L 9.796875 12.15625 
C 9.796875 10.234375 9.796875 -1 21.40625 -1 
C 27.296875 -1 30.703125 4.8125 30.703125 12.25 
L 30.703125 17.984375 
L 28.90625 17.984375 
L 28.90625 12.34375 
C 28.90625 5.421875 26.203125 0.796875 22 0.796875 
C 19.09375 0.796875 15.09375 2.796875 15.09375 11.953125 
z
" id="CMR17-116"/>
      <path d="M 15 23.703125 
C 15 33.34375 19.09375 42.390625 26.59375 42.390625 
C 27.296875 42.390625 28 42.296875 28.703125 41.984375 
C 28.703125 41.984375 26.5 41.28125 26.5 38.671875 
C 26.5 36.265625 28.40625 35.265625 29.90625 35.265625 
C 31.09375 35.265625 33.296875 35.96875 33.296875 38.78125 
C 33.296875 41.984375 30.09375 44 26.703125 44 
C 19.09375 44 15.796875 36.5625 14.796875 33.046875 
L 14.703125 33.046875 
L 14.703125 44 
L 3.09375 42.890625 
L 3.09375 40.28125 
C 9 40.28125 9.90625 39.6875 9.90625 34.859375 
L 9.90625 6.921875 
C 9.90625 3.09375 9.5 2.59375 3.09375 2.59375 
L 3.09375 0 
C 5.5 0.1875 10.09375 0.1875 12.703125 0.1875 
C 15.59375 0.1875 20.703125 0.1875 23.40625 0 
L 23.40625 2.59375 
C 16.203125 2.59375 15 2.59375 15 7.109375 
z
" id="CMR17-114"/>
      <path d="M 15.296875 69 
L 3.40625 67.890625 
L 3.40625 65.296875 
C 9.296875 65.296875 10.203125 64.703125 10.203125 59.921875 
L 10.203125 6.859375 
C 10.203125 3.09375 9.796875 2.59375 3.40625 2.59375 
L 3.40625 0 
C 5.796875 0.1875 10.203125 0.1875 12.703125 0.1875 
C 15.296875 0.1875 19.703125 0.1875 22.09375 0 
L 22.09375 2.59375 
C 15.703125 2.59375 15.296875 2.984375 15.296875 6.859375 
z
" id="CMR17-108"/>
      <path d="M 38.09375 23.484375 
C 38.5 23.890625 38.5 24.09375 38.5 25.09375 
C 38.5 35.171875 33.09375 44 21.703125 44 
C 11.09375 44 2.703125 33.984375 2.703125 21.78125 
C 2.703125 8.65625 12.203125 -1 22.796875 -1 
C 34 -1 38.40625 9.671875 38.40625 11.796875 
C 38.40625 12.5 37.796875 12.5 37.59375 12.5 
C 36.90625 12.5 36.796875 12.296875 36.40625 11.078125 
C 34.203125 4.21875 28.703125 0.796875 23.5 0.796875 
C 19.203125 0.796875 14.90625 3.21875 12.203125 7.65625 
C 9.09375 12.796875 9.09375 18.75 9.09375 23.484375 
z
M 9.203125 25 
C 9.90625 39.234375 17.59375 42.390625 21.59375 42.390625 
C 28.40625 42.390625 33 36.0625 33.09375 25 
z
" id="CMR17-101"/>
      <path d="M 11.09375 18.203125 
C 13 16.6875 16.296875 15 20.296875 15 
C 28.203125 15 35 21.234375 35 29.609375 
C 35 32.234375 34.203125 36.265625 31.203125 39.390625 
C 34 42.390625 38.09375 43.390625 40.40625 43.390625 
C 40.796875 43.390625 41.40625 43.390625 41.90625 43.09375 
C 41.5 42.984375 40.59375 42.59375 40.59375 40.984375 
C 40.59375 39.6875 41.5 38.796875 42.796875 38.796875 
C 44.296875 38.796875 45.09375 39.796875 45.09375 41.09375 
C 45.09375 42.984375 43.59375 45 40.40625 45 
C 36.40625 45 32.90625 43.09375 30.09375 40.484375 
C 27.09375 43.1875 23.5 44.1875 20.296875 44.1875 
C 12.40625 44.1875 5.59375 37.984375 5.59375 29.609375 
C 5.59375 23.859375 8.90625 20.21875 9.90625 19.21875 
C 6.90625 15.6875 6.90625 11.59375 6.90625 11.09375 
C 6.90625 8.5 7.90625 4.6875 11.296875 2.59375 
C 6.09375 1.28125 2 -2.875 2 -8.078125 
C 2 -15.5625 11.5 -21 22.90625 -21 
C 33.90625 -21 43.796875 -15.765625 43.796875 -7.96875 
C 43.796875 6 29 6 21.296875 6 
C 19 6 14.90625 6 14.40625 6.09375 
C 11.296875 6.59375 9.203125 9.390625 9.203125 12.890625 
C 9.203125 13.796875 9.203125 16 11.09375 18.203125 
z
M 20.296875 16.6875 
C 11.5 16.6875 11.5 27.59375 11.5 29.609375 
C 11.5 31.625 11.5 42.484375 20.296875 42.484375 
C 29.09375 42.484375 29.09375 31.625 29.09375 29.609375 
C 29.09375 27.59375 29.09375 16.6875 20.296875 16.6875 
z
M 22.90625 -19.3125 
C 12.90625 -19.3125 6 -13.796875 6 -8.078125 
C 6 -4.859375 7.703125 -1.84375 9.90625 -0.171875 
C 12.40625 1.59375 13.40625 1.59375 20.203125 1.59375 
C 28.40625 1.59375 39.796875 1.59375 39.796875 -8.078125 
C 39.796875 -13.796875 32.90625 -19.3125 22.90625 -19.3125 
z
" id="CMR17-103"/>
      <path d="M 39 34.109375 
C 41.5 40.296875 46 40.390625 47.40625 40.390625 
L 47.40625 43 
C 45.5 42.890625 43 42.796875 41.09375 42.796875 
C 39 42.796875 35.703125 42.796875 33.703125 43 
L 33.703125 40.390625 
C 37.5 40.09375 37.59375 37.25 37.59375 36.4375 
C 37.59375 35.4375 37.40625 34.921875 36.90625 33.71875 
L 26 6.390625 
L 14.09375 35.9375 
C 13.59375 37.15625 13.59375 37.859375 13.59375 37.96875 
C 13.59375 40.1875 15.90625 40.390625 18.296875 40.390625 
L 18.296875 43 
C 15.90625 42.796875 11.59375 42.796875 9.09375 42.796875 
C 6.40625 42.796875 3.203125 42.796875 1 43 
L 1 40.390625 
C 6.40625 40.390625 7 39.890625 8.296875 36.640625 
L 23.203125 -0.484375 
C 18.703125 -12.421875 16.09375 -19.40625 9.796875 -19.40625 
C 8.703125 -19.40625 6.203125 -19.109375 4.40625 -17.28125 
C 6.703125 -17.078125 7.703125 -15.65625 7.703125 -13.9375 
C 7.703125 -12.21875 6.5 -10.703125 4.5 -10.703125 
C 2.296875 -10.703125 1.203125 -12.21875 1.203125 -14.046875 
C 1.203125 -18.09375 5.296875 -21 9.796875 -21 
C 15.59375 -21 19.203125 -15.359375 21.203125 -10.296875 
z
" id="CMR17-121"/>
     </defs>
     <use transform="scale(0.996264)" xlink:href="#CMR17-79"/>
     <use transform="translate(71.714788 0)scale(0.996264)" xlink:href="#CMR17-67"/>
     <use transform="translate(168.300635 0)scale(0.996264)" xlink:href="#CMR17-99"/>
     <use transform="translate(208.786296 0)scale(0.996264)" xlink:href="#CMR17-111"/>
     <use transform="translate(254.476773 0)scale(0.996264)" xlink:href="#CMR17-110"/>
     <use transform="translate(302.769689 0)scale(0.996264)" xlink:href="#CMR17-116"/>
     <use transform="translate(338.050457 0)scale(0.996264)" xlink:href="#CMR17-114"/>
     <use transform="translate(373.331224 0)scale(0.996264)" xlink:href="#CMR17-111"/>
     <use transform="translate(419.021701 0)scale(0.996264)" xlink:href="#CMR17-108"/>
     <use transform="translate(473.968726 0)scale(0.996264)" xlink:href="#CMR17-101"/>
     <use transform="translate(514.454387 0)scale(0.996264)" xlink:href="#CMR17-110"/>
     <use transform="translate(565.349757 0)scale(0.996264)" xlink:href="#CMR17-101"/>
     <use transform="translate(605.835417 0)scale(0.996264)" xlink:href="#CMR17-114"/>
     <use transform="translate(641.116185 0)scale(0.996264)" xlink:href="#CMR17-103"/>
     <use transform="translate(686.806662 0)scale(0.996264)" xlink:href="#CMR17-121"/>
    </g>
   </g>
   <g id="LineCollection_1">
    <path clip-path="url(#p98a25eec4e)" d="M 297.677907 34.789739 
L 497.294645 34.789739 
" style="fill:none;stroke:#e84a5f;stroke-dasharray:5.55,2.4;stroke-dashoffset:0;stroke-width:1.5;"/>
   </g>
  </g>
 </g>
 <defs>
  <clipPath id="p611b174074">
   <rect height="105.295881" width="199.616738" x="47.438505" y="13.681551"/>
  </clipPath>
  <clipPath id="p98a25eec4e">
   <rect height="105.295881" width="199.616738" x="297.677907" y="13.681551"/>
  </clipPath>
 </defs>
</svg>
